G04*
G04 #@! TF.GenerationSoftware,Altium Limited,Altium Designer,24.2.2 (26)*
G04*
G04 Layer_Physical_Order=1*
G04 Layer_Color=255*
%FSLAX25Y25*%
%MOIN*%
G70*
G04*
G04 #@! TF.SameCoordinates,5F3C5C40-F4FD-4A7E-B3CF-B0B929BE72FD*
G04*
G04*
G04 #@! TF.FilePolarity,Positive*
G04*
G01*
G75*
%ADD13C,0.01000*%
%ADD27R,0.07874X0.19685*%
%ADD28R,0.05906X0.03543*%
%ADD29R,0.04724X0.03150*%
%ADD30R,0.03937X0.05118*%
%ADD31R,0.01378X0.06299*%
%ADD32O,0.01378X0.06299*%
%ADD33C,0.01968*%
%ADD34C,0.01378*%
%ADD35C,0.06693*%
%ADD36C,0.18000*%
%ADD37R,0.06693X0.06693*%
%ADD38R,0.06693X0.06693*%
%ADD39C,0.23622*%
%ADD40C,0.03150*%
G36*
X328918Y264266D02*
X327778Y263685D01*
X326023Y262410D01*
X324490Y260877D01*
X323215Y259122D01*
X322230Y257189D01*
X321560Y255127D01*
X321220Y252984D01*
Y250816D01*
X321560Y248673D01*
X322230Y246610D01*
X323215Y244678D01*
X324490Y242923D01*
X326023Y241390D01*
X327778Y240115D01*
X329711Y239130D01*
X331773Y238460D01*
X333915Y238121D01*
X336085D01*
X338227Y238460D01*
X340289Y239130D01*
X342222Y240115D01*
X343977Y241390D01*
X345510Y242923D01*
X346785Y244678D01*
X347770Y246610D01*
X348440Y248673D01*
X348566Y249467D01*
X349066Y249428D01*
Y22472D01*
X348566Y22433D01*
X348440Y23227D01*
X347770Y25289D01*
X346785Y27222D01*
X345510Y28977D01*
X343977Y30510D01*
X342222Y31785D01*
X340289Y32770D01*
X338227Y33440D01*
X336085Y33779D01*
X333915D01*
X331773Y33440D01*
X329711Y32770D01*
X327778Y31785D01*
X326023Y30510D01*
X324490Y28977D01*
X323215Y27222D01*
X322230Y25289D01*
X321560Y23227D01*
X321220Y21084D01*
Y18915D01*
X321560Y16773D01*
X322230Y14710D01*
X323215Y12778D01*
X324490Y11023D01*
X326023Y9490D01*
X327778Y8215D01*
X329711Y7230D01*
X331773Y6560D01*
X332567Y6434D01*
X332528Y5934D01*
X288037D01*
X287903Y6434D01*
X288476Y6765D01*
X289135Y7424D01*
X289602Y8232D01*
X289843Y9133D01*
Y10067D01*
X289602Y10968D01*
X289135Y11776D01*
X288817Y12094D01*
Y15535D01*
X289317Y15701D01*
X290448Y15047D01*
X291800Y14685D01*
X293200D01*
X294551Y15047D01*
X295763Y15747D01*
X296753Y16736D01*
X297211Y17530D01*
X297789D01*
X298247Y16736D01*
X299236Y15747D01*
X300448Y15047D01*
X301800Y14685D01*
X303200D01*
X304552Y15047D01*
X305764Y15747D01*
X306753Y16736D01*
X307453Y17948D01*
X307815Y19300D01*
Y20700D01*
X307453Y22051D01*
X306753Y23264D01*
X305764Y24253D01*
X304970Y24711D01*
Y25289D01*
X305764Y25747D01*
X306753Y26737D01*
X307453Y27948D01*
X307815Y29300D01*
Y30700D01*
X307453Y32052D01*
X306753Y33263D01*
X305764Y34253D01*
X304970Y34711D01*
Y35289D01*
X305764Y35747D01*
X306753Y36737D01*
X307453Y37949D01*
X307815Y39300D01*
Y40700D01*
X307453Y42052D01*
X306753Y43264D01*
X305764Y44253D01*
X304970Y44711D01*
Y45289D01*
X305764Y45747D01*
X306753Y46736D01*
X307453Y47949D01*
X307815Y49300D01*
Y50700D01*
X307453Y52052D01*
X306753Y53263D01*
X305764Y54253D01*
X304970Y54711D01*
Y55289D01*
X305764Y55747D01*
X306753Y56736D01*
X307453Y57948D01*
X307815Y59300D01*
Y60700D01*
X307453Y62051D01*
X306753Y63263D01*
X305764Y64253D01*
X304970Y64711D01*
Y65289D01*
X305764Y65747D01*
X306753Y66737D01*
X307453Y67949D01*
X307815Y69300D01*
Y70700D01*
X307453Y72052D01*
X306753Y73264D01*
X305764Y74253D01*
X304970Y74711D01*
Y75289D01*
X305764Y75747D01*
X306753Y76736D01*
X307453Y77948D01*
X307815Y79300D01*
Y80700D01*
X307453Y82051D01*
X306753Y83263D01*
X305764Y84253D01*
X304970Y84711D01*
Y85289D01*
X305764Y85747D01*
X306753Y86737D01*
X307453Y87949D01*
X307815Y89300D01*
Y90700D01*
X307453Y92052D01*
X306753Y93264D01*
X305764Y94253D01*
X304970Y94711D01*
Y95289D01*
X305764Y95747D01*
X306753Y96737D01*
X307453Y97948D01*
X307815Y99300D01*
Y100700D01*
X307453Y102051D01*
X306753Y103263D01*
X305764Y104253D01*
X304970Y104711D01*
Y105289D01*
X305764Y105747D01*
X306753Y106737D01*
X307453Y107949D01*
X307815Y109300D01*
Y110700D01*
X307453Y112051D01*
X306753Y113263D01*
X305764Y114253D01*
X304552Y114953D01*
X303440Y115251D01*
Y115768D01*
X304172Y115964D01*
X305159Y116535D01*
X305965Y117341D01*
X306536Y118328D01*
X306825Y119409D01*
X302500D01*
X298175D01*
X298464Y118328D01*
X299035Y117341D01*
X299841Y116535D01*
X300828Y115964D01*
X301560Y115768D01*
Y115251D01*
X300448Y114953D01*
X299236Y114253D01*
X298247Y113263D01*
X297547Y112051D01*
X297249Y110940D01*
X296732D01*
X296536Y111672D01*
X295965Y112659D01*
X295159Y113465D01*
X294172Y114036D01*
X293091Y114325D01*
Y110000D01*
X292500D01*
Y109409D01*
X288175D01*
X288464Y108328D01*
X289035Y107341D01*
X289841Y106535D01*
X290828Y105964D01*
X291560Y105768D01*
Y105251D01*
X290448Y104953D01*
X289236Y104253D01*
X288247Y103263D01*
X287547Y102051D01*
X287185Y100700D01*
Y99300D01*
X287547Y97948D01*
X288247Y96737D01*
X289236Y95747D01*
X290030Y95289D01*
Y94711D01*
X289236Y94253D01*
X288247Y93264D01*
X287547Y92052D01*
X287185Y90700D01*
Y89300D01*
X287547Y87949D01*
X288247Y86737D01*
X289236Y85747D01*
X290030Y85289D01*
Y84711D01*
X289236Y84253D01*
X288247Y83263D01*
X287547Y82051D01*
X287185Y80700D01*
Y79300D01*
X287547Y77948D01*
X288247Y76736D01*
X289236Y75747D01*
X290030Y75289D01*
Y74711D01*
X289236Y74253D01*
X288247Y73264D01*
X287547Y72052D01*
X287185Y70700D01*
Y69300D01*
X287547Y67949D01*
X288247Y66737D01*
X289236Y65747D01*
X290030Y65289D01*
Y64711D01*
X289236Y64253D01*
X288247Y63263D01*
X287643Y62217D01*
X287200D01*
X286280Y62034D01*
X286156Y62050D01*
X285780Y62251D01*
Y77369D01*
X285935Y77524D01*
X286402Y78332D01*
X286643Y79233D01*
Y80167D01*
X286402Y81068D01*
X285935Y81876D01*
X285780Y82031D01*
Y116769D01*
X285835Y116824D01*
X286302Y117632D01*
X286543Y118534D01*
Y119466D01*
X286302Y120368D01*
X285835Y121176D01*
X285780Y121231D01*
Y128985D01*
X285789Y129006D01*
X285880Y129700D01*
Y137320D01*
X287910D01*
X288247Y136737D01*
X289236Y135747D01*
X290030Y135289D01*
Y134711D01*
X289236Y134253D01*
X288247Y133263D01*
X287547Y132052D01*
X287185Y130700D01*
Y129300D01*
X287547Y127948D01*
X288247Y126737D01*
X289236Y125747D01*
X290448Y125047D01*
X291560Y124749D01*
Y124232D01*
X290828Y124036D01*
X289841Y123465D01*
X289035Y122659D01*
X288464Y121672D01*
X288175Y120591D01*
X292500D01*
X296825D01*
X296536Y121672D01*
X295965Y122659D01*
X295159Y123465D01*
X294172Y124036D01*
X293440Y124232D01*
Y124749D01*
X294551Y125047D01*
X295763Y125747D01*
X296753Y126737D01*
X297211Y127530D01*
X297789D01*
X298247Y126737D01*
X299236Y125747D01*
X300448Y125047D01*
X301560Y124749D01*
Y124232D01*
X300828Y124036D01*
X299841Y123465D01*
X299035Y122659D01*
X298464Y121672D01*
X298175Y120591D01*
X302500D01*
X306825D01*
X306536Y121672D01*
X305965Y122659D01*
X305159Y123465D01*
X304172Y124036D01*
X303440Y124232D01*
Y124749D01*
X304552Y125047D01*
X305764Y125747D01*
X306753Y126737D01*
X307453Y127948D01*
X307815Y129300D01*
Y130700D01*
X307453Y132052D01*
X306753Y133263D01*
X305764Y134253D01*
X304970Y134711D01*
Y135289D01*
X305764Y135747D01*
X306753Y136737D01*
X307453Y137949D01*
X307815Y139300D01*
Y140700D01*
X307453Y142051D01*
X306753Y143263D01*
X305764Y144253D01*
X304970Y144711D01*
Y145289D01*
X305764Y145747D01*
X306753Y146737D01*
X307453Y147949D01*
X307815Y149300D01*
Y150700D01*
X307453Y152051D01*
X306753Y153263D01*
X305764Y154253D01*
X304970Y154711D01*
Y155289D01*
X305764Y155747D01*
X306753Y156737D01*
X307453Y157949D01*
X307815Y159300D01*
Y160700D01*
X307453Y162051D01*
X306753Y163263D01*
X305764Y164253D01*
X304970Y164711D01*
Y165289D01*
X305764Y165747D01*
X306753Y166737D01*
X307453Y167948D01*
X307815Y169300D01*
Y170700D01*
X307453Y172052D01*
X306753Y173263D01*
X305764Y174253D01*
X304970Y174711D01*
Y175289D01*
X305764Y175747D01*
X306753Y176737D01*
X307453Y177948D01*
X307815Y179300D01*
Y180700D01*
X307453Y182052D01*
X306753Y183263D01*
X305764Y184253D01*
X304970Y184711D01*
Y185289D01*
X305764Y185747D01*
X306753Y186737D01*
X307453Y187949D01*
X307815Y189300D01*
Y190700D01*
X307453Y192051D01*
X306753Y193263D01*
X305764Y194253D01*
X304970Y194711D01*
Y195289D01*
X305764Y195747D01*
X306753Y196737D01*
X307453Y197949D01*
X307815Y199300D01*
Y200700D01*
X307453Y202051D01*
X306753Y203263D01*
X305831Y204185D01*
X305928Y204685D01*
X307815D01*
Y215315D01*
X297185D01*
Y213428D01*
X296685Y213331D01*
X295763Y214253D01*
X294551Y214953D01*
X293200Y215315D01*
X291800D01*
X290448Y214953D01*
X289236Y214253D01*
X288247Y213264D01*
X287547Y212052D01*
X287185Y210700D01*
Y209300D01*
X287547Y207948D01*
X288247Y206736D01*
X289236Y205747D01*
X290030Y205289D01*
Y204711D01*
X289236Y204253D01*
X288247Y203263D01*
X287547Y202051D01*
X287185Y200700D01*
Y199300D01*
X287547Y197949D01*
X288247Y196737D01*
X289236Y195747D01*
X290030Y195289D01*
Y194711D01*
X289236Y194253D01*
X288247Y193263D01*
X287547Y192051D01*
X287185Y190700D01*
Y189300D01*
X287547Y187949D01*
X288247Y186737D01*
X289236Y185747D01*
X290448Y185047D01*
X291560Y184749D01*
Y184232D01*
X290828Y184036D01*
X289841Y183465D01*
X289035Y182659D01*
X288464Y181672D01*
X288175Y180591D01*
X292500D01*
Y179409D01*
X288175D01*
X288464Y178328D01*
X289035Y177341D01*
X289841Y176535D01*
X290828Y175964D01*
X291560Y175768D01*
Y175251D01*
X290448Y174953D01*
X289236Y174253D01*
X288247Y173263D01*
X287547Y172052D01*
X287185Y170700D01*
Y169300D01*
X287547Y167948D01*
X288247Y166737D01*
X289236Y165747D01*
X290030Y165289D01*
Y164711D01*
X289236Y164253D01*
X288247Y163263D01*
X287547Y162051D01*
X287185Y160700D01*
Y159300D01*
X287547Y157949D01*
X288247Y156737D01*
X289236Y155747D01*
X290030Y155289D01*
Y154711D01*
X289236Y154253D01*
X288247Y153263D01*
X287547Y152051D01*
X287185Y150700D01*
Y149300D01*
X287547Y147949D01*
X288247Y146737D01*
X289236Y145747D01*
X290030Y145289D01*
Y144711D01*
X289236Y144253D01*
X288247Y143263D01*
X287910Y142680D01*
X285880D01*
Y155569D01*
X286035Y155724D01*
X286502Y156532D01*
X286743Y157433D01*
Y158367D01*
X286502Y159268D01*
X286035Y160076D01*
X285980Y160131D01*
Y200769D01*
X286235Y201024D01*
X286702Y201832D01*
X286943Y202733D01*
Y203666D01*
X286702Y204568D01*
X286235Y205376D01*
X286080Y205531D01*
Y215567D01*
X286477Y215872D01*
X286533Y215857D01*
X287467D01*
X288368Y216098D01*
X289176Y216565D01*
X289835Y217224D01*
X290302Y218032D01*
X290543Y218934D01*
Y219866D01*
X290302Y220768D01*
X289978Y221328D01*
Y222157D01*
X290813D01*
X291714Y222398D01*
X291816Y222457D01*
X300103D01*
Y229543D01*
X291442D01*
Y229486D01*
X291045Y229181D01*
X290813Y229243D01*
X289978D01*
Y239089D01*
X292963D01*
Y262711D01*
X281152D01*
Y239089D01*
X281357D01*
X281490Y238589D01*
X281224Y238435D01*
X280565Y237776D01*
X280330Y237370D01*
X279830Y237504D01*
Y241400D01*
Y254957D01*
X279729Y255728D01*
X279431Y256446D01*
X278958Y257063D01*
X276441Y259580D01*
X275824Y260053D01*
X275106Y260351D01*
X274335Y260452D01*
X274059D01*
X273976Y260535D01*
X273168Y261002D01*
X272267Y261243D01*
X271334D01*
X270432Y261002D01*
X269624Y260535D01*
X268965Y259876D01*
X268498Y259068D01*
X268257Y258167D01*
Y257234D01*
X268498Y256332D01*
X268965Y255524D01*
X269624Y254865D01*
X270432Y254398D01*
X271334Y254157D01*
X272267D01*
X273168Y254398D01*
X273188Y254410D01*
X273874Y253724D01*
Y244814D01*
X273374Y244525D01*
X273068Y244702D01*
X272166Y244943D01*
X271234D01*
X270332Y244702D01*
X269524Y244235D01*
X268865Y243576D01*
X268398Y242768D01*
X268157Y241866D01*
Y240933D01*
X268398Y240032D01*
X268865Y239224D01*
X269524Y238565D01*
X270332Y238098D01*
X271234Y237857D01*
X272166D01*
X273068Y238098D01*
X273374Y238275D01*
X273874Y237986D01*
Y229114D01*
X273374Y228825D01*
X273068Y229002D01*
X272166Y229243D01*
X271234D01*
X270332Y229002D01*
X269524Y228535D01*
X268865Y227876D01*
X268398Y227068D01*
X268157Y226167D01*
Y225234D01*
X268398Y224332D01*
X268865Y223524D01*
X269524Y222865D01*
X270332Y222398D01*
X271234Y222157D01*
X272166D01*
X273068Y222398D01*
X273374Y222575D01*
X273874Y222286D01*
Y213714D01*
X273374Y213425D01*
X273068Y213602D01*
X272166Y213843D01*
X271234D01*
X270332Y213602D01*
X269524Y213135D01*
X268865Y212476D01*
X268398Y211668D01*
X268157Y210767D01*
Y209834D01*
X268398Y208932D01*
X268865Y208124D01*
X269524Y207465D01*
X270332Y206998D01*
X271234Y206757D01*
X272166D01*
X273068Y206998D01*
X273374Y207175D01*
X273874Y206886D01*
Y197272D01*
X273698Y196968D01*
X273457Y196066D01*
Y195133D01*
X273698Y194232D01*
X274122Y193499D01*
Y181678D01*
X273628D01*
X273068Y182002D01*
X272166Y182243D01*
X271234D01*
X270332Y182002D01*
X269524Y181535D01*
X268865Y180876D01*
X268398Y180068D01*
X268157Y179166D01*
Y178234D01*
X268398Y177332D01*
X268865Y176524D01*
X269524Y175865D01*
X270332Y175398D01*
X271234Y175157D01*
X272166D01*
X273068Y175398D01*
X273628Y175722D01*
X274122D01*
Y166078D01*
X273628D01*
X273068Y166402D01*
X272166Y166643D01*
X271234D01*
X270332Y166402D01*
X269524Y165935D01*
X268865Y165276D01*
X268398Y164468D01*
X268157Y163567D01*
Y162634D01*
X268398Y161732D01*
X268865Y160924D01*
X269524Y160265D01*
X270332Y159798D01*
X271234Y159557D01*
X272166D01*
X273068Y159798D01*
X273628Y160122D01*
X274122D01*
Y150378D01*
X273628D01*
X273068Y150702D01*
X272166Y150943D01*
X271234D01*
X270332Y150702D01*
X269524Y150235D01*
X268865Y149576D01*
X268398Y148768D01*
X268157Y147866D01*
Y146933D01*
X268398Y146032D01*
X268865Y145224D01*
X269524Y144565D01*
X270332Y144098D01*
X271234Y143857D01*
X272166D01*
X273068Y144098D01*
X273628Y144422D01*
X274122D01*
Y134878D01*
X273628D01*
X273068Y135202D01*
X272166Y135443D01*
X271234D01*
X270332Y135202D01*
X269524Y134735D01*
X268865Y134076D01*
X268398Y133268D01*
X268157Y132367D01*
Y131433D01*
X268398Y130532D01*
X268865Y129724D01*
X269524Y129065D01*
X270332Y128598D01*
X271234Y128357D01*
X272166D01*
X273068Y128598D01*
X273628Y128922D01*
X274122D01*
Y118978D01*
X273628D01*
X273068Y119302D01*
X272166Y119543D01*
X271234D01*
X270332Y119302D01*
X269524Y118835D01*
X268865Y118176D01*
X268398Y117368D01*
X268157Y116466D01*
Y115533D01*
X268398Y114632D01*
X268865Y113824D01*
X269524Y113165D01*
X270332Y112698D01*
X271234Y112457D01*
X272166D01*
X273068Y112698D01*
X273628Y113022D01*
X274122D01*
Y103478D01*
X273628D01*
X273068Y103802D01*
X272166Y104043D01*
X271234D01*
X270332Y103802D01*
X269524Y103335D01*
X268865Y102676D01*
X268398Y101868D01*
X268157Y100967D01*
Y100033D01*
X268398Y99132D01*
X268865Y98324D01*
X269524Y97665D01*
X270332Y97198D01*
X271234Y96957D01*
X272166D01*
X273068Y97198D01*
X273628Y97522D01*
X274122D01*
Y87778D01*
X273628D01*
X273068Y88102D01*
X272166Y88343D01*
X271234D01*
X270332Y88102D01*
X269524Y87635D01*
X268865Y86976D01*
X268398Y86168D01*
X268157Y85267D01*
Y84333D01*
X268398Y83432D01*
X268865Y82624D01*
X269524Y81965D01*
X270332Y81498D01*
X271234Y81257D01*
X272166D01*
X273068Y81498D01*
X273628Y81822D01*
X274122D01*
Y71978D01*
X273628D01*
X273068Y72302D01*
X272166Y72543D01*
X271234D01*
X270332Y72302D01*
X269524Y71835D01*
X268865Y71176D01*
X268398Y70368D01*
X268157Y69467D01*
Y68533D01*
X268398Y67632D01*
X268865Y66824D01*
X269524Y66165D01*
X270332Y65698D01*
X271234Y65457D01*
X272166D01*
X273068Y65698D01*
X273628Y66022D01*
X274122D01*
Y56178D01*
X273628D01*
X273068Y56502D01*
X272166Y56743D01*
X271234D01*
X270332Y56502D01*
X269524Y56035D01*
X268865Y55376D01*
X268398Y54568D01*
X268157Y53667D01*
Y52733D01*
X268398Y51832D01*
X268865Y51024D01*
X269524Y50365D01*
X270332Y49898D01*
X271234Y49657D01*
X272166D01*
X273068Y49898D01*
X273628Y50222D01*
X274122D01*
Y40478D01*
X273628D01*
X273068Y40802D01*
X272166Y41043D01*
X271234D01*
X270332Y40802D01*
X269524Y40335D01*
X268865Y39676D01*
X268398Y38868D01*
X268157Y37966D01*
Y37034D01*
X268398Y36132D01*
X268865Y35324D01*
X269524Y34665D01*
X270332Y34198D01*
X271234Y33957D01*
X272166D01*
X273068Y34198D01*
X273628Y34522D01*
X274122D01*
Y25178D01*
X273628D01*
X273068Y25502D01*
X272166Y25743D01*
X271234D01*
X270332Y25502D01*
X269524Y25035D01*
X268865Y24376D01*
X268398Y23568D01*
X268157Y22667D01*
Y21734D01*
X268398Y20832D01*
X268865Y20024D01*
X269524Y19365D01*
X270332Y18898D01*
X271234Y18657D01*
X272166D01*
X273068Y18898D01*
X273628Y19222D01*
X275947D01*
X276718Y19323D01*
X277436Y19621D01*
X278053Y20094D01*
X279206Y21247D01*
X279679Y21864D01*
X279870Y22324D01*
X280370Y22224D01*
Y8681D01*
X280165Y8476D01*
X279698Y7668D01*
X279457Y6767D01*
Y5934D01*
X72343D01*
Y6766D01*
X72102Y7667D01*
X71635Y8475D01*
X71480Y8630D01*
Y89753D01*
X71980Y89960D01*
X72720Y89220D01*
X73537Y88675D01*
X74500Y88483D01*
X75716D01*
X76147Y87736D01*
X77136Y86747D01*
X77930Y86289D01*
Y85711D01*
X77136Y85253D01*
X76147Y84263D01*
X75447Y83052D01*
X75085Y81700D01*
Y80300D01*
X75447Y78948D01*
X76147Y77737D01*
X77136Y76747D01*
X77930Y76289D01*
Y75711D01*
X77136Y75253D01*
X76147Y74264D01*
X75447Y73052D01*
X75085Y71700D01*
Y70300D01*
X75447Y68949D01*
X76147Y67737D01*
X77136Y66747D01*
X77930Y66289D01*
Y65711D01*
X77136Y65253D01*
X76147Y64263D01*
X75447Y63051D01*
X75085Y61700D01*
Y60300D01*
X75447Y58948D01*
X76147Y57736D01*
X77136Y56747D01*
X77930Y56289D01*
Y55711D01*
X77136Y55253D01*
X76147Y54264D01*
X75447Y53052D01*
X75085Y51700D01*
Y50300D01*
X75447Y48948D01*
X76147Y47736D01*
X77136Y46747D01*
X77930Y46289D01*
Y45711D01*
X77136Y45253D01*
X76147Y44263D01*
X75447Y43051D01*
X75085Y41700D01*
Y40300D01*
X75447Y38949D01*
X76147Y37736D01*
X77136Y36747D01*
X77930Y36289D01*
Y35711D01*
X77136Y35253D01*
X76147Y34264D01*
X75447Y33051D01*
X75085Y31700D01*
Y30300D01*
X75447Y28949D01*
X76147Y27736D01*
X77136Y26747D01*
X77930Y26289D01*
Y25711D01*
X77136Y25253D01*
X76147Y24263D01*
X75447Y23052D01*
X75085Y21700D01*
Y20300D01*
X75447Y18948D01*
X76147Y17737D01*
X77136Y16747D01*
X78348Y16047D01*
X79700Y15685D01*
X81100D01*
X82451Y16047D01*
X83663Y16747D01*
X84653Y17737D01*
X85353Y18948D01*
X85715Y20300D01*
Y21700D01*
X85353Y23052D01*
X84653Y24263D01*
X83663Y25253D01*
X82870Y25711D01*
Y26289D01*
X83663Y26747D01*
X84653Y27736D01*
X85353Y28949D01*
X85715Y30300D01*
Y31700D01*
X85353Y33051D01*
X84653Y34264D01*
X83663Y35253D01*
X82870Y35711D01*
Y36289D01*
X83663Y36747D01*
X84653Y37736D01*
X85353Y38949D01*
X85715Y40300D01*
Y41700D01*
X85353Y43051D01*
X84653Y44263D01*
X83663Y45253D01*
X82870Y45711D01*
Y46289D01*
X83663Y46747D01*
X84653Y47736D01*
X85353Y48948D01*
X85715Y50300D01*
Y51700D01*
X85353Y53052D01*
X84653Y54264D01*
X83663Y55253D01*
X82870Y55711D01*
Y56289D01*
X83663Y56747D01*
X84653Y57736D01*
X85353Y58948D01*
X85715Y60300D01*
Y61700D01*
X85353Y63051D01*
X84653Y64263D01*
X83663Y65253D01*
X82870Y65711D01*
Y66289D01*
X83663Y66747D01*
X84653Y67737D01*
X85353Y68949D01*
X85715Y70300D01*
Y71700D01*
X85353Y73052D01*
X84653Y74264D01*
X83663Y75253D01*
X82870Y75711D01*
Y76289D01*
X83663Y76747D01*
X84653Y77737D01*
X85353Y78948D01*
X85715Y80300D01*
Y81700D01*
X85353Y83052D01*
X84653Y84263D01*
X83663Y85253D01*
X82870Y85711D01*
Y86289D01*
X83663Y86747D01*
X84653Y87736D01*
X85353Y88949D01*
X85715Y90300D01*
Y91700D01*
X85353Y93051D01*
X84653Y94263D01*
X83663Y95253D01*
X82870Y95711D01*
Y96289D01*
X83663Y96747D01*
X84653Y97737D01*
X85353Y98949D01*
X85715Y100300D01*
Y101700D01*
X85353Y103051D01*
X84653Y104263D01*
X83663Y105253D01*
X82870Y105711D01*
Y106289D01*
X83663Y106747D01*
X84653Y107737D01*
X85353Y108949D01*
X85715Y110300D01*
Y111700D01*
X85353Y113051D01*
X84653Y114263D01*
X83663Y115253D01*
X82870Y115711D01*
Y116289D01*
X83663Y116747D01*
X84653Y117737D01*
X85353Y118948D01*
X85715Y120300D01*
Y121700D01*
X85353Y123052D01*
X84653Y124263D01*
X83731Y125185D01*
X83828Y125685D01*
X85715D01*
Y136315D01*
X75085D01*
Y129476D01*
X74553Y128943D01*
X73633D01*
X73217Y128832D01*
X72717Y129215D01*
Y135510D01*
X75380Y138172D01*
X75925Y138989D01*
X76117Y139952D01*
Y150573D01*
X81672D01*
Y159627D01*
X73798D01*
Y157517D01*
X73337Y157425D01*
X72520Y156880D01*
X71820Y156180D01*
X71275Y155363D01*
X71083Y154400D01*
Y154015D01*
X70583Y153632D01*
X70166Y153743D01*
X69234D01*
X68332Y153502D01*
X67524Y153035D01*
X67409Y152920D01*
X66913Y152986D01*
X66753Y153263D01*
X65763Y154253D01*
X64970Y154711D01*
Y155289D01*
X65763Y155747D01*
X66753Y156737D01*
X66897Y156985D01*
X67522Y157068D01*
X67524Y157065D01*
X68332Y156598D01*
X69234Y156357D01*
X70166D01*
X71068Y156598D01*
X71876Y157065D01*
X72535Y157724D01*
X73002Y158532D01*
X73243Y159433D01*
Y160366D01*
X73002Y161268D01*
X72535Y162076D01*
X71876Y162735D01*
X71068Y163202D01*
X70166Y163443D01*
X69234D01*
X68332Y163202D01*
X67608Y162783D01*
X67413Y162766D01*
X66970Y162888D01*
X66753Y163263D01*
X65763Y164253D01*
X64552Y164953D01*
X63440Y165251D01*
Y165768D01*
X64172Y165964D01*
X65159Y166535D01*
X65965Y167341D01*
X66536Y168328D01*
X66825Y169409D01*
X62500D01*
Y170591D01*
X66825D01*
X66536Y171672D01*
X65965Y172659D01*
X65159Y173465D01*
X64172Y174036D01*
X63440Y174232D01*
Y174749D01*
X64552Y175047D01*
X65763Y175747D01*
X66753Y176737D01*
X67453Y177948D01*
X67815Y179300D01*
Y180700D01*
X67453Y182052D01*
X66753Y183263D01*
X65763Y184253D01*
X64970Y184711D01*
Y185289D01*
X65763Y185747D01*
X66753Y186737D01*
X67453Y187949D01*
X67815Y189300D01*
Y190700D01*
X67453Y192051D01*
X66753Y193263D01*
X65763Y194253D01*
X64970Y194711D01*
Y195289D01*
X65763Y195747D01*
X66753Y196737D01*
X67453Y197949D01*
X67815Y199300D01*
Y200700D01*
X67453Y202051D01*
X66753Y203263D01*
X65831Y204185D01*
X65927Y204685D01*
X67815D01*
Y215315D01*
X57185D01*
Y213428D01*
X56685Y213331D01*
X55764Y214253D01*
X54552Y214953D01*
X53200Y215315D01*
X51800D01*
X51299Y215180D01*
X51040Y215629D01*
X51135Y215724D01*
X51602Y216532D01*
X51843Y217434D01*
Y218367D01*
X51602Y219268D01*
X51135Y220076D01*
X50476Y220735D01*
X49668Y221202D01*
X48766Y221443D01*
X47833D01*
X47717Y221533D01*
Y251106D01*
X48235Y251624D01*
X48702Y252432D01*
X48943Y253333D01*
Y254267D01*
X48702Y255168D01*
X48235Y255976D01*
X47576Y256635D01*
X46768Y257102D01*
X45867Y257343D01*
X45669D01*
X45365Y257740D01*
X45443Y258033D01*
Y258966D01*
X45202Y259868D01*
X44735Y260676D01*
X44076Y261335D01*
X43268Y261802D01*
X42366Y262043D01*
X41434D01*
X40532Y261802D01*
X39724Y261335D01*
X39065Y260676D01*
X38598Y259868D01*
X38357Y258966D01*
Y258033D01*
X38598Y257132D01*
X39065Y256324D01*
X39372Y256017D01*
Y252485D01*
X39283Y252039D01*
Y93400D01*
X39475Y92437D01*
X40020Y91620D01*
X43420Y88220D01*
X44237Y87675D01*
X45200Y87483D01*
X47816D01*
X48247Y86737D01*
X49237Y85747D01*
X50030Y85289D01*
Y84711D01*
X49237Y84253D01*
X48247Y83263D01*
X47547Y82051D01*
X47185Y80700D01*
Y79300D01*
X47547Y77948D01*
X48247Y76736D01*
X49237Y75747D01*
X50030Y75289D01*
Y74711D01*
X49237Y74253D01*
X48247Y73264D01*
X47816Y72517D01*
X43500D01*
X42537Y72325D01*
X41720Y71780D01*
X40320Y70380D01*
X39775Y69563D01*
X39583Y68600D01*
Y15394D01*
X39265Y15076D01*
X38798Y14268D01*
X38557Y13366D01*
Y12433D01*
X38798Y11532D01*
X39265Y10724D01*
X39924Y10065D01*
X40732Y9598D01*
X41633Y9357D01*
X42566D01*
X43468Y9598D01*
X44276Y10065D01*
X44935Y10724D01*
X45402Y11532D01*
X45643Y12433D01*
Y13366D01*
X45402Y14268D01*
X44935Y15076D01*
X44617Y15394D01*
Y67483D01*
X47816D01*
X48247Y66737D01*
X49237Y65747D01*
X50449Y65047D01*
X51560Y64749D01*
Y64232D01*
X50828Y64036D01*
X49841Y63465D01*
X49035Y62659D01*
X48464Y61672D01*
X48175Y60590D01*
X52500D01*
Y59409D01*
X48175D01*
X48464Y58328D01*
X49035Y57341D01*
X49841Y56535D01*
X50828Y55964D01*
X51560Y55768D01*
Y55251D01*
X50449Y54953D01*
X49237Y54253D01*
X48247Y53263D01*
X47547Y52052D01*
X47185Y50700D01*
Y49300D01*
X47547Y47949D01*
X48247Y46736D01*
X49237Y45747D01*
X50030Y45289D01*
Y44711D01*
X49237Y44253D01*
X48247Y43264D01*
X47547Y42052D01*
X47185Y40700D01*
Y39300D01*
X47547Y37949D01*
X48247Y36737D01*
X49237Y35747D01*
X50030Y35289D01*
Y34711D01*
X49237Y34253D01*
X48247Y33263D01*
X47547Y32052D01*
X47185Y30700D01*
Y29300D01*
X47547Y27948D01*
X48247Y26737D01*
X49237Y25747D01*
X50030Y25289D01*
Y24711D01*
X49237Y24253D01*
X48247Y23264D01*
X47547Y22051D01*
X47185Y20700D01*
Y19300D01*
X47547Y17948D01*
X48247Y16736D01*
X49237Y15747D01*
X50449Y15047D01*
X51800Y14685D01*
X53200D01*
X54552Y15047D01*
X55764Y15747D01*
X56753Y16736D01*
X57211Y17530D01*
X57789D01*
X58247Y16736D01*
X59237Y15747D01*
X60448Y15047D01*
X61800Y14685D01*
X63200D01*
X64552Y15047D01*
X65620Y15664D01*
X66120Y15452D01*
Y8630D01*
X65965Y8475D01*
X65498Y7667D01*
X65257Y6766D01*
Y5934D01*
X22472D01*
X22433Y6434D01*
X23227Y6560D01*
X25289Y7230D01*
X27222Y8215D01*
X28977Y9490D01*
X30510Y11023D01*
X31785Y12778D01*
X32770Y14710D01*
X33440Y16773D01*
X33779Y18915D01*
Y21084D01*
X33440Y23227D01*
X32770Y25289D01*
X31785Y27222D01*
X30510Y28977D01*
X28977Y30510D01*
X27222Y31785D01*
X25289Y32770D01*
X23227Y33440D01*
X21084Y33779D01*
X18915D01*
X16773Y33440D01*
X14710Y32770D01*
X12778Y31785D01*
X11023Y30510D01*
X9490Y28977D01*
X8215Y27222D01*
X7230Y25289D01*
X6560Y23227D01*
X6434Y22433D01*
X5934Y22472D01*
Y249428D01*
X6434Y249467D01*
X6560Y248673D01*
X7230Y246610D01*
X8215Y244678D01*
X9490Y242923D01*
X11023Y241390D01*
X12778Y240115D01*
X14710Y239130D01*
X16773Y238460D01*
X18915Y238121D01*
X21084D01*
X23227Y238460D01*
X25289Y239130D01*
X27222Y240115D01*
X28977Y241390D01*
X30510Y242923D01*
X31785Y244678D01*
X32770Y246610D01*
X33440Y248673D01*
X33779Y250816D01*
Y252984D01*
X33440Y255127D01*
X32770Y257189D01*
X31785Y259122D01*
X30510Y260877D01*
X28977Y262410D01*
X27222Y263685D01*
X26083Y264266D01*
X26203Y264766D01*
X161657D01*
Y263934D01*
X161898Y263033D01*
X162365Y262225D01*
X162683Y261907D01*
Y257100D01*
X162875Y256137D01*
X163420Y255320D01*
X168976Y249764D01*
X169793Y249219D01*
X170172Y249143D01*
X170123Y248643D01*
X169534D01*
X168632Y248402D01*
X167824Y247935D01*
X167165Y247276D01*
X166698Y246468D01*
X166457Y245567D01*
Y244634D01*
X166698Y243732D01*
X167165Y242924D01*
X167558Y242531D01*
Y242025D01*
X167750Y241062D01*
X168295Y240246D01*
X168920Y239620D01*
X169737Y239075D01*
X170700Y238883D01*
X170696Y238385D01*
X170568D01*
X169605Y238193D01*
X168788Y237647D01*
X167864Y236724D01*
X167792Y236729D01*
X167416Y237259D01*
X167543Y237734D01*
Y238667D01*
X167302Y239568D01*
X166835Y240376D01*
X166176Y241035D01*
X165368Y241502D01*
X164467Y241743D01*
X163533D01*
X163214Y241658D01*
X162817Y241962D01*
Y247406D01*
X163135Y247724D01*
X163602Y248532D01*
X163843Y249433D01*
Y250366D01*
X163602Y251268D01*
X163135Y252076D01*
X162476Y252735D01*
X161668Y253202D01*
X160766Y253443D01*
X159834D01*
X158932Y253202D01*
X158124Y252735D01*
X157465Y252076D01*
X156998Y251268D01*
X156757Y250366D01*
Y249433D01*
X156998Y248532D01*
X157465Y247724D01*
X157783Y247406D01*
Y233686D01*
X157466Y233443D01*
X156534D01*
X155632Y233202D01*
X154824Y232735D01*
X154165Y232076D01*
X153698Y231268D01*
X153457Y230366D01*
Y229433D01*
X153698Y228532D01*
X154165Y227724D01*
X154383Y227506D01*
Y207194D01*
X153965Y206776D01*
X153498Y205968D01*
X153257Y205066D01*
Y204134D01*
X153498Y203232D01*
X153965Y202424D01*
X153983Y202406D01*
Y194794D01*
X153665Y194476D01*
X153198Y193668D01*
X152957Y192766D01*
Y191833D01*
X153198Y190932D01*
X153665Y190124D01*
X154083Y189706D01*
Y163433D01*
X153966Y163343D01*
X153033D01*
X152132Y163102D01*
X151324Y162635D01*
X150665Y161976D01*
X150198Y161168D01*
X149957Y160266D01*
Y159334D01*
X150198Y158432D01*
X150665Y157624D01*
X150983Y157306D01*
Y150930D01*
X150483Y150864D01*
X150402Y151168D01*
X149935Y151976D01*
X149276Y152635D01*
X148468Y153102D01*
X147566Y153343D01*
X146634D01*
X145732Y153102D01*
X144924Y152635D01*
X144265Y151976D01*
X143798Y151168D01*
X143557Y150267D01*
Y149334D01*
X143798Y148432D01*
X144265Y147624D01*
X144583Y147306D01*
Y134986D01*
X144121Y134795D01*
X143663Y135253D01*
X142452Y135952D01*
X141100Y136315D01*
X139700D01*
X138348Y135952D01*
X137137Y135253D01*
X136147Y134263D01*
X135447Y133051D01*
X135085Y131699D01*
Y130300D01*
X135447Y128948D01*
X136147Y127736D01*
X137137Y126747D01*
X137930Y126288D01*
Y125711D01*
X137137Y125253D01*
X136147Y124263D01*
X135447Y123051D01*
X135085Y121699D01*
Y120300D01*
X135447Y118948D01*
X136147Y117736D01*
X137137Y116747D01*
X137930Y116288D01*
Y115711D01*
X137137Y115253D01*
X136147Y114263D01*
X135447Y113051D01*
X135085Y111699D01*
Y110300D01*
X135447Y108948D01*
X136147Y107736D01*
X137137Y106747D01*
X137930Y106288D01*
Y105711D01*
X137137Y105253D01*
X136147Y104263D01*
X135447Y103051D01*
X135085Y101699D01*
Y100300D01*
X135447Y98948D01*
X136147Y97736D01*
X137137Y96747D01*
X137930Y96288D01*
Y95711D01*
X137137Y95253D01*
X136147Y94263D01*
X135447Y93051D01*
X135085Y91699D01*
Y90300D01*
X135447Y88948D01*
X136147Y87736D01*
X137137Y86747D01*
X137930Y86288D01*
Y85711D01*
X137137Y85253D01*
X136147Y84263D01*
X135447Y83051D01*
X135085Y81699D01*
Y80300D01*
X135447Y78948D01*
X136147Y77736D01*
X137137Y76747D01*
X137930Y76288D01*
Y75711D01*
X137137Y75253D01*
X136147Y74263D01*
X135447Y73051D01*
X135085Y71699D01*
Y70300D01*
X135447Y68948D01*
X136147Y67736D01*
X137137Y66747D01*
X137930Y66288D01*
Y65711D01*
X137137Y65253D01*
X136147Y64263D01*
X135447Y63051D01*
X135085Y61699D01*
Y60300D01*
X135447Y58948D01*
X136147Y57736D01*
X137137Y56747D01*
X137930Y56288D01*
Y55711D01*
X137137Y55253D01*
X136147Y54263D01*
X135447Y53051D01*
X135085Y51699D01*
Y50300D01*
X135447Y48948D01*
X136147Y47736D01*
X137137Y46747D01*
X137930Y46288D01*
Y45711D01*
X137137Y45253D01*
X136147Y44263D01*
X135447Y43051D01*
X135085Y41699D01*
Y40300D01*
X135447Y38948D01*
X136147Y37736D01*
X137137Y36747D01*
X137930Y36288D01*
Y35711D01*
X137137Y35253D01*
X136147Y34263D01*
X135447Y33051D01*
X135085Y31699D01*
Y30300D01*
X135447Y28948D01*
X136147Y27736D01*
X137137Y26747D01*
X138348Y26047D01*
X139460Y25749D01*
Y25231D01*
X138728Y25035D01*
X137741Y24465D01*
X136935Y23659D01*
X136364Y22671D01*
X136075Y21590D01*
X140400D01*
X144725D01*
X144436Y22671D01*
X143865Y23659D01*
X143059Y24465D01*
X142072Y25035D01*
X141340Y25231D01*
Y25749D01*
X142452Y26047D01*
X143663Y26747D01*
X144653Y27736D01*
X145353Y28948D01*
X145715Y30300D01*
Y31699D01*
X145353Y33051D01*
X144653Y34263D01*
X143663Y35253D01*
X142870Y35711D01*
Y36288D01*
X143663Y36747D01*
X144653Y37736D01*
X145353Y38948D01*
X145715Y40300D01*
Y41699D01*
X145353Y43051D01*
X144653Y44263D01*
X143663Y45253D01*
X142870Y45711D01*
Y46288D01*
X143663Y46747D01*
X144653Y47736D01*
X145353Y48948D01*
X145715Y50300D01*
Y51699D01*
X145353Y53051D01*
X144653Y54263D01*
X143663Y55253D01*
X142870Y55711D01*
Y56288D01*
X143663Y56747D01*
X144653Y57736D01*
X145353Y58948D01*
X145715Y60300D01*
Y61699D01*
X145353Y63051D01*
X144653Y64263D01*
X143663Y65253D01*
X142870Y65711D01*
Y66288D01*
X143663Y66747D01*
X144653Y67736D01*
X145353Y68948D01*
X145715Y70300D01*
Y71699D01*
X145353Y73051D01*
X144653Y74263D01*
X143663Y75253D01*
X142870Y75711D01*
Y76288D01*
X143663Y76747D01*
X144653Y77736D01*
X145084Y78483D01*
X148058D01*
X148783Y77758D01*
Y12494D01*
X148465Y12176D01*
X147998Y11368D01*
X147757Y10467D01*
Y9533D01*
X147998Y8632D01*
X148465Y7824D01*
X149124Y7165D01*
X149932Y6698D01*
X150833Y6457D01*
X151767D01*
X152668Y6698D01*
X153476Y7165D01*
X154135Y7824D01*
X154602Y8632D01*
X154843Y9533D01*
Y10467D01*
X154602Y11368D01*
X154135Y12176D01*
X153817Y12494D01*
Y28465D01*
X154317Y28672D01*
X154524Y28465D01*
X155332Y27998D01*
X156234Y27757D01*
X157167D01*
X158068Y27998D01*
X158876Y28465D01*
X159535Y29124D01*
X160002Y29932D01*
X160243Y30834D01*
Y31767D01*
X160002Y32668D01*
X159535Y33476D01*
X159417Y33594D01*
Y54111D01*
X159813Y54416D01*
X160034Y54357D01*
X160967D01*
X160986Y54362D01*
X161383Y54058D01*
Y40494D01*
X161165Y40276D01*
X160698Y39468D01*
X160457Y38566D01*
Y37633D01*
X160698Y36732D01*
X161165Y35924D01*
X161633Y35456D01*
Y15244D01*
X161465Y15076D01*
X160998Y14268D01*
X160757Y13366D01*
Y12433D01*
X160998Y11532D01*
X161465Y10724D01*
X162124Y10065D01*
X162932Y9598D01*
X163833Y9357D01*
X164767D01*
X165668Y9598D01*
X166476Y10065D01*
X167135Y10724D01*
X167602Y11532D01*
X167843Y12433D01*
Y13366D01*
X167602Y14268D01*
X167135Y15076D01*
X166667Y15544D01*
Y21733D01*
X167130Y21942D01*
X167167Y21936D01*
X167695Y21146D01*
X168620Y20220D01*
X169437Y19675D01*
X170400Y19483D01*
X171474D01*
Y18172D01*
Y12660D01*
X173983D01*
Y12500D01*
X174175Y11537D01*
X174720Y10720D01*
X175520Y9920D01*
X176337Y9375D01*
X177300Y9183D01*
X222500D01*
X223463Y9375D01*
X224280Y9920D01*
X225639Y11279D01*
X226184Y12096D01*
X226376Y13059D01*
Y18006D01*
X226418Y18043D01*
X227112Y18135D01*
X227698Y18377D01*
X228284Y18135D01*
X228977Y18043D01*
X229234Y18077D01*
X229283Y17831D01*
X229829Y17014D01*
X232223Y14620D01*
X233039Y14075D01*
X234002Y13883D01*
X240700D01*
X241663Y14075D01*
X242480Y14620D01*
X251232Y23372D01*
X259000D01*
Y32428D01*
X252580D01*
Y40286D01*
X253080Y40455D01*
X253168Y40342D01*
X254205Y39305D01*
X254760Y38879D01*
X255406Y38611D01*
X256100Y38520D01*
X257169D01*
X257324Y38365D01*
X258132Y37898D01*
X259033Y37657D01*
X259966D01*
X260868Y37898D01*
X261676Y38365D01*
X262335Y39024D01*
X262802Y39832D01*
X263043Y40734D01*
Y41666D01*
X262802Y42568D01*
X262456Y43166D01*
X262716Y43666D01*
X265890D01*
Y46619D01*
X262937D01*
X259984D01*
Y44757D01*
X259966Y44743D01*
X259033D01*
X259000Y44769D01*
Y51737D01*
X251126D01*
Y49889D01*
X251009D01*
X250315Y49798D01*
X249669Y49530D01*
X249114Y49104D01*
X248005Y47995D01*
X247579Y47440D01*
X247311Y46794D01*
X247220Y46100D01*
Y29784D01*
X238690Y21254D01*
X236776D01*
Y25645D01*
X236684Y26339D01*
X236417Y26985D01*
X235991Y27540D01*
X235435Y27966D01*
X234789Y28234D01*
X234095Y28325D01*
X233401Y28234D01*
X232816Y27992D01*
X232230Y28234D01*
X231536Y28325D01*
X230842Y28234D01*
X230257Y27992D01*
X229671Y28234D01*
X228977Y28325D01*
X228926Y28370D01*
Y29215D01*
X229235Y29524D01*
X229702Y30332D01*
X229943Y31234D01*
Y32166D01*
X229702Y33068D01*
X229235Y33876D01*
X228576Y34535D01*
X227768Y35002D01*
X226867Y35243D01*
X225934D01*
X225032Y35002D01*
X224224Y34535D01*
X223565Y33876D01*
X223098Y33068D01*
X222934Y32455D01*
X222636Y32157D01*
X222357Y32146D01*
X221667Y32331D01*
X220733D01*
X219832Y32090D01*
X219024Y31623D01*
X218365Y30963D01*
X217898Y30156D01*
X217773Y29689D01*
X217681Y29617D01*
X217203Y29495D01*
X216559Y29925D01*
X215596Y30117D01*
X210883D01*
X210676Y30617D01*
X217979Y37919D01*
X218474Y37854D01*
X218665Y37524D01*
X219324Y36865D01*
X220132Y36398D01*
X221034Y36157D01*
X221967D01*
X222868Y36398D01*
X223676Y36865D01*
X224335Y37524D01*
X224582Y37952D01*
X225207Y38034D01*
X225328Y37914D01*
X226136Y37447D01*
X227037Y37206D01*
X227970D01*
X228871Y37447D01*
X229679Y37914D01*
X230027Y38262D01*
X230224Y38065D01*
X231032Y37598D01*
X231933Y37357D01*
X232867D01*
X233768Y37598D01*
X234576Y38065D01*
X235235Y38724D01*
X235702Y39532D01*
X235943Y40433D01*
Y41366D01*
X235702Y42268D01*
X235491Y42633D01*
X235741Y43066D01*
X235768D01*
Y51334D01*
X234117D01*
Y52283D01*
X240973D01*
X241937Y52475D01*
X242753Y53020D01*
X251723Y61991D01*
X259000D01*
Y71046D01*
X252580D01*
Y78986D01*
X253080Y79155D01*
X253168Y79042D01*
X254105Y78105D01*
X254660Y77679D01*
X255306Y77411D01*
X256000Y77320D01*
X256669D01*
X257124Y76865D01*
X257932Y76398D01*
X258834Y76157D01*
X259767D01*
X260668Y76398D01*
X261476Y76865D01*
X262135Y77524D01*
X262602Y78332D01*
X262843Y79233D01*
Y80167D01*
X262602Y81068D01*
X262188Y81784D01*
X262347Y82240D01*
Y85237D01*
X259984D01*
Y83411D01*
X259767Y83243D01*
X259000D01*
Y90355D01*
X251126D01*
Y88508D01*
X250827D01*
X250133Y88416D01*
X249487Y88149D01*
X248932Y87723D01*
X248005Y86795D01*
X247579Y86240D01*
X247311Y85594D01*
X247220Y84900D01*
Y67910D01*
X238963Y59654D01*
X237497D01*
X237417Y60267D01*
X237149Y60913D01*
X236776Y61400D01*
Y65227D01*
X236684Y65920D01*
X236417Y66567D01*
X235991Y67122D01*
X235435Y67548D01*
X234789Y67816D01*
X234095Y67907D01*
X233401Y67816D01*
X232816Y67573D01*
X232230Y67816D01*
X231536Y67907D01*
X230842Y67816D01*
X230257Y67573D01*
X229671Y67816D01*
X228977Y67907D01*
X228926Y67952D01*
Y70115D01*
X229235Y70424D01*
X229702Y71232D01*
X229943Y72133D01*
Y73067D01*
X229939Y73083D01*
X230368Y73198D01*
X231176Y73665D01*
X231835Y74324D01*
X232302Y75132D01*
X232543Y76034D01*
Y76967D01*
X232302Y77868D01*
X231835Y78676D01*
X231505Y79005D01*
Y81614D01*
X231536Y81640D01*
X232230Y81732D01*
X232876Y82000D01*
X233432Y82426D01*
X233602Y82648D01*
X235768D01*
Y90915D01*
X234117D01*
Y92583D01*
X242000D01*
X242963Y92775D01*
X243780Y93320D01*
X250770Y100311D01*
X251126Y100609D01*
Y100609D01*
X251126Y100609D01*
X259000D01*
Y109664D01*
X252780D01*
Y118170D01*
X253280Y118329D01*
X254405Y117205D01*
X254960Y116779D01*
X255606Y116511D01*
X256300Y116420D01*
X257062D01*
X257124Y116358D01*
X257932Y115891D01*
X258834Y115650D01*
X259767D01*
X260668Y115891D01*
X261476Y116358D01*
X262135Y117017D01*
X262602Y117825D01*
X262843Y118726D01*
Y119659D01*
X262644Y120402D01*
X262922Y120902D01*
X265890D01*
Y123855D01*
X262937D01*
X259984D01*
Y122903D01*
X259767Y122736D01*
X259000D01*
Y128973D01*
X251126D01*
Y127380D01*
X250907D01*
X250214Y127289D01*
X249567Y127021D01*
X249012Y126595D01*
X248205Y125788D01*
X247779Y125233D01*
X247511Y124587D01*
X247420Y123893D01*
Y107810D01*
X239563Y99954D01*
X236776D01*
Y104808D01*
X236684Y105502D01*
X236417Y106148D01*
X235991Y106703D01*
X235435Y107130D01*
X234789Y107397D01*
X234095Y107489D01*
X233401Y107397D01*
X232816Y107155D01*
X232230Y107397D01*
X231536Y107489D01*
X230842Y107397D01*
X230257Y107155D01*
X229671Y107397D01*
X228977Y107489D01*
X228926Y107534D01*
Y110015D01*
X229235Y110324D01*
X229702Y111132D01*
X229943Y112033D01*
Y112967D01*
X229702Y113868D01*
X229235Y114676D01*
X228576Y115335D01*
X227768Y115802D01*
X226867Y116043D01*
X225934D01*
X225032Y115802D01*
X224224Y115335D01*
X223565Y114676D01*
X223098Y113868D01*
X222877Y113040D01*
X222836Y112955D01*
X222357Y112685D01*
X221766Y112843D01*
X220833D01*
X219932Y112602D01*
X219124Y112135D01*
X218465Y111476D01*
X217998Y110668D01*
X217757Y109766D01*
Y109316D01*
X216961Y108521D01*
X216841Y108341D01*
X216388Y108643D01*
X215425Y108835D01*
X214430D01*
X213968Y109102D01*
X213067Y109343D01*
X212134D01*
X211232Y109102D01*
X210424Y108635D01*
X209765Y107976D01*
X209298Y107168D01*
X209057Y106266D01*
Y105333D01*
X209298Y104432D01*
X209765Y103624D01*
X210424Y102965D01*
X211232Y102498D01*
X212134Y102257D01*
X213067D01*
X213105Y102267D01*
X213502Y101963D01*
Y99887D01*
X213593Y99193D01*
X213861Y98547D01*
X214287Y97992D01*
X214539Y97798D01*
X214369Y97298D01*
X197516D01*
X197309Y97798D01*
X197735Y98224D01*
X198202Y99032D01*
X198443Y99933D01*
Y100866D01*
X198202Y101768D01*
X197735Y102576D01*
X197076Y103235D01*
X196268Y103702D01*
X195367Y103943D01*
X194433D01*
X194021Y103833D01*
X193521Y104033D01*
Y104033D01*
X183679D01*
Y96553D01*
Y93932D01*
X181316D01*
Y96553D01*
Y104033D01*
X171474D01*
Y102944D01*
X170976Y102735D01*
X170220Y103172D01*
X170343Y103633D01*
Y104567D01*
X170112Y105430D01*
X170368Y105498D01*
X171176Y105965D01*
X171835Y106624D01*
X171889Y106718D01*
X181316D01*
Y112229D01*
Y119710D01*
X174042D01*
X173792Y120143D01*
X173902Y120332D01*
X174143Y121233D01*
Y122167D01*
X174318Y122394D01*
X181316D01*
Y127906D01*
Y135386D01*
X177570D01*
X177326Y135886D01*
X177543Y136696D01*
Y137629D01*
X177531Y137673D01*
X177836Y138070D01*
X181316D01*
Y143582D01*
Y151062D01*
X173843D01*
Y151267D01*
X173602Y152168D01*
X173135Y152976D01*
X172865Y153246D01*
X173072Y153746D01*
X181316D01*
Y159258D01*
Y166738D01*
X171474D01*
X171311Y167043D01*
X171302Y167068D01*
X171302Y167068D01*
X170835Y167876D01*
X170176Y168535D01*
X169619Y168857D01*
X169651Y169198D01*
X169726Y169372D01*
X170568Y169598D01*
X170974Y169833D01*
X171474Y169544D01*
Y169422D01*
X181316D01*
Y174934D01*
Y182414D01*
X172249D01*
X172116Y182914D01*
X172376Y183065D01*
X173035Y183724D01*
X173502Y184532D01*
X173654Y185099D01*
X181316D01*
Y190610D01*
Y198091D01*
X171797D01*
X171732Y198151D01*
X171531Y198591D01*
X171902Y199232D01*
X172143Y200133D01*
Y200584D01*
X172334Y200775D01*
X181316D01*
Y206287D01*
Y213767D01*
X171574D01*
X171168Y214002D01*
X170266Y214243D01*
X170207D01*
X170016Y214705D01*
X171762Y216451D01*
X181316D01*
Y221963D01*
Y229443D01*
X171474D01*
Y228617D01*
X170494D01*
X170176Y228935D01*
X169707Y229206D01*
X169703Y229439D01*
X169799Y229730D01*
X170600Y229945D01*
X171408Y230411D01*
X172068Y231071D01*
X172535Y231879D01*
X172601Y232128D01*
X181316D01*
Y237639D01*
Y245120D01*
X173543D01*
Y245567D01*
X173302Y246468D01*
X172835Y247276D01*
X172769Y247342D01*
X172960Y247804D01*
X181316D01*
Y253316D01*
Y260796D01*
X174610D01*
X174305Y261193D01*
X174343Y261333D01*
Y262266D01*
X174102Y263168D01*
X173635Y263976D01*
X173345Y264266D01*
X173552Y264766D01*
X213157D01*
Y263934D01*
X213398Y263033D01*
X213865Y262225D01*
X214183Y261907D01*
Y256802D01*
X214375Y255838D01*
X214920Y255022D01*
X216224Y253718D01*
Y250286D01*
X216182Y250249D01*
X215488Y250157D01*
X214842Y249890D01*
X214287Y249464D01*
X213861Y248909D01*
X213770Y248689D01*
X213268Y248402D01*
X212367Y248643D01*
X211434D01*
X210532Y248402D01*
X209724Y247935D01*
X209065Y247276D01*
X208598Y246468D01*
X208357Y245567D01*
Y244634D01*
X208598Y243732D01*
X209065Y242924D01*
X209383Y242606D01*
Y235252D01*
X209575Y234289D01*
X210120Y233472D01*
X213665Y229928D01*
Y224421D01*
X213593Y224247D01*
X213502Y223553D01*
Y218632D01*
X213593Y217938D01*
X213696Y217690D01*
X213684Y217597D01*
X213389Y217124D01*
X212732Y216948D01*
X211924Y216482D01*
X211265Y215822D01*
X211097Y215532D01*
X210868Y215664D01*
X209966Y215905D01*
X209033D01*
X208132Y215664D01*
X207324Y215198D01*
X206665Y214538D01*
X206198Y213730D01*
X205957Y212829D01*
Y211896D01*
X206198Y210995D01*
X206665Y210187D01*
X207324Y209527D01*
X208132Y209060D01*
X209033Y208819D01*
X209903D01*
X210164Y208558D01*
X210981Y208013D01*
X211944Y207821D01*
X213502D01*
Y203066D01*
X213514Y202974D01*
X213365Y202824D01*
X212898Y202016D01*
X212657Y201115D01*
Y200182D01*
X212898Y199281D01*
X213365Y198473D01*
X214024Y197813D01*
X214832Y197347D01*
X215734Y197106D01*
X216667D01*
X217568Y197347D01*
X218376Y197813D01*
X218750Y198188D01*
X219124Y197813D01*
X219932Y197347D01*
X220833Y197106D01*
X221766D01*
X222668Y197347D01*
X223476Y197813D01*
X224135Y198473D01*
X224602Y199281D01*
X224843Y200182D01*
Y200361D01*
X225325Y200642D01*
X225648Y200508D01*
X225832Y200264D01*
X225948Y200028D01*
X225798Y199768D01*
X225557Y198866D01*
Y197933D01*
X225798Y197032D01*
X226265Y196224D01*
X226924Y195565D01*
X227732Y195098D01*
X228633Y194857D01*
X229567D01*
X230468Y195098D01*
X231276Y195565D01*
X231935Y196224D01*
X232402Y197032D01*
X232643Y197933D01*
Y198866D01*
X232402Y199768D01*
X232259Y200015D01*
X232504Y200590D01*
X232876Y200744D01*
X233432Y201170D01*
X233602Y201392D01*
X235768D01*
Y209660D01*
X234053D01*
Y213942D01*
X238764D01*
X239017Y213992D01*
X247209D01*
X248172Y214183D01*
X248988Y214729D01*
X250841Y216582D01*
X251126Y216463D01*
Y216463D01*
X259000D01*
Y225518D01*
X252643D01*
X252237Y226019D01*
X252280Y226350D01*
Y234375D01*
X252610Y234512D01*
X252780Y234517D01*
X253168Y234012D01*
X253975Y233205D01*
X254530Y232779D01*
X255176Y232511D01*
X255870Y232420D01*
X257269D01*
X257424Y232265D01*
X258232Y231798D01*
X259134Y231557D01*
X260067D01*
X260968Y231798D01*
X261776Y232265D01*
X262435Y232924D01*
X262902Y233732D01*
X263143Y234633D01*
Y235566D01*
X262958Y236257D01*
X263262Y236757D01*
X265890D01*
Y239709D01*
X262937D01*
X259984D01*
Y238643D01*
X259134D01*
X259000Y238746D01*
Y244828D01*
X251126D01*
Y242380D01*
X250407D01*
X249713Y242289D01*
X249067Y242021D01*
X248512Y241595D01*
X247705Y240788D01*
X247279Y240233D01*
X247011Y239586D01*
X246920Y238893D01*
Y227460D01*
X243232Y223773D01*
X236747D01*
X236684Y224247D01*
X236417Y224893D01*
X235991Y225448D01*
X235435Y225874D01*
X234789Y226142D01*
X234095Y226233D01*
X233401Y226142D01*
X232816Y225899D01*
X232230Y226142D01*
X231536Y226233D01*
X230842Y226142D01*
X230257Y225899D01*
X229671Y226142D01*
X228977Y226233D01*
X228926Y226278D01*
Y229315D01*
X229235Y229624D01*
X229702Y230432D01*
X229943Y231333D01*
Y232266D01*
X229702Y233168D01*
X229362Y233757D01*
X229399Y233936D01*
X229576Y234269D01*
X229604Y234294D01*
X230368Y234498D01*
X231176Y234965D01*
X231835Y235624D01*
X232302Y236432D01*
X232543Y237333D01*
Y238266D01*
X232302Y239168D01*
X232089Y239535D01*
X232153Y239772D01*
X232339Y240103D01*
X232876Y240326D01*
X233432Y240752D01*
X233602Y240974D01*
X235768D01*
Y249242D01*
X234085D01*
Y251227D01*
X234435Y251578D01*
X234902Y252386D01*
X235143Y253287D01*
Y254220D01*
X234902Y255121D01*
X234435Y255929D01*
X233776Y256589D01*
X232968Y257055D01*
X232066Y257297D01*
X231134D01*
X230232Y257055D01*
X229424Y256589D01*
X228765Y255929D01*
X228298Y255121D01*
X228057Y254220D01*
Y254080D01*
X227660Y253775D01*
X227398Y253846D01*
X226857D01*
X226435Y254576D01*
X225776Y255235D01*
X224968Y255702D01*
X224066Y255943D01*
X223255D01*
Y259044D01*
X223535Y259324D01*
X224002Y260132D01*
X224243Y261034D01*
Y261966D01*
X224002Y262868D01*
X223535Y263676D01*
X222945Y264266D01*
X223043Y264766D01*
X328797D01*
X328918Y264266D01*
D02*
G37*
%LPC*%
G36*
X193521Y260796D02*
Y260796D01*
X183679D01*
Y253316D01*
Y247804D01*
X193521D01*
Y248321D01*
X195206D01*
X195524Y248002D01*
X196332Y247536D01*
X197233Y247294D01*
X198167D01*
X199068Y247536D01*
X199876Y248002D01*
X200535Y248662D01*
X201002Y249470D01*
X201243Y250371D01*
Y251304D01*
X201002Y252205D01*
X200535Y253013D01*
X199876Y253673D01*
X199068Y254140D01*
X198167Y254381D01*
X197899D01*
X197692Y254881D01*
X197735Y254924D01*
X198202Y255732D01*
X198443Y256633D01*
Y257566D01*
X198202Y258468D01*
X197735Y259276D01*
X197076Y259935D01*
X196268Y260402D01*
X195367Y260643D01*
X194433D01*
X194021Y260533D01*
X193521Y260796D01*
D02*
G37*
G36*
X195367Y245273D02*
X194433D01*
X194005Y245158D01*
X193521Y245120D01*
X193521Y245120D01*
X193521Y245120D01*
X183679D01*
Y237639D01*
Y232127D01*
X193521D01*
Y232127D01*
X194021Y232270D01*
X194534Y232132D01*
X195466D01*
X196368Y232374D01*
X197176Y232840D01*
X197835Y233500D01*
X198302Y234308D01*
X198543Y235209D01*
Y236142D01*
X198302Y237043D01*
X197835Y237851D01*
X197262Y238425D01*
X197187Y238614D01*
X197235Y239054D01*
X197735Y239554D01*
X198202Y240362D01*
X198443Y241263D01*
Y242196D01*
X198202Y243097D01*
X197735Y243905D01*
X197076Y244565D01*
X196268Y245032D01*
X195367Y245273D01*
D02*
G37*
G36*
X111383Y253284D02*
X110991D01*
Y243891D01*
X120384D01*
Y244283D01*
X120001Y246212D01*
X119248Y248029D01*
X118155Y249665D01*
X116765Y251055D01*
X115129Y252148D01*
X113312Y252901D01*
X111383Y253284D01*
D02*
G37*
G36*
X109809D02*
X109417D01*
X107488Y252901D01*
X105671Y252148D01*
X104035Y251055D01*
X102645Y249665D01*
X101552Y248029D01*
X100799Y246212D01*
X100416Y244283D01*
Y243891D01*
X109809D01*
Y253284D01*
D02*
G37*
G36*
X265890Y243843D02*
X263527D01*
Y240891D01*
X265890D01*
Y243843D01*
D02*
G37*
G36*
X262346D02*
X259984D01*
Y240891D01*
X262346D01*
Y243843D01*
D02*
G37*
G36*
X312648Y262711D02*
X300837D01*
Y239089D01*
X312648D01*
Y247357D01*
X313566D01*
X314468Y247598D01*
X315276Y248065D01*
X315935Y248724D01*
X316402Y249532D01*
X316643Y250433D01*
Y251366D01*
X316402Y252268D01*
X315935Y253076D01*
X315276Y253735D01*
X314468Y254202D01*
X313566Y254443D01*
X312648D01*
Y262711D01*
D02*
G37*
G36*
X120384Y242709D02*
X110991D01*
Y233316D01*
X111383D01*
X113312Y233699D01*
X115129Y234452D01*
X116765Y235545D01*
X118155Y236935D01*
X119248Y238571D01*
X120001Y240388D01*
X120384Y242317D01*
Y242709D01*
D02*
G37*
G36*
X109809D02*
X100416D01*
Y242317D01*
X100799Y240388D01*
X101552Y238571D01*
X102645Y236935D01*
X104035Y235545D01*
X105671Y234452D01*
X107488Y233699D01*
X109417Y233316D01*
X109809D01*
Y242709D01*
D02*
G37*
G36*
X91383Y240784D02*
X90991D01*
Y231391D01*
X100384D01*
Y231783D01*
X100001Y233712D01*
X99248Y235529D01*
X98155Y237165D01*
X96765Y238555D01*
X95129Y239648D01*
X93312Y240401D01*
X91383Y240784D01*
D02*
G37*
G36*
X89810D02*
X89417D01*
X87488Y240401D01*
X85671Y239648D01*
X84035Y238555D01*
X82645Y237165D01*
X81552Y235529D01*
X80799Y233712D01*
X80416Y231783D01*
Y231391D01*
X89810D01*
Y240784D01*
D02*
G37*
G36*
X308174Y228559D02*
X305418D01*
Y226591D01*
X308174D01*
Y228559D01*
D02*
G37*
G36*
X304237D02*
X301481D01*
Y226591D01*
X304237D01*
Y228559D01*
D02*
G37*
G36*
X308174Y225410D02*
X305418D01*
Y223441D01*
X308174D01*
Y225410D01*
D02*
G37*
G36*
X304237D02*
X301481D01*
Y223441D01*
X304237D01*
Y225410D01*
D02*
G37*
G36*
X265890Y224534D02*
X263527D01*
Y221582D01*
X265890D01*
Y224534D01*
D02*
G37*
G36*
X262346D02*
X259984D01*
Y221582D01*
X262346D01*
Y224534D01*
D02*
G37*
G36*
X100384Y230209D02*
X90991D01*
Y220816D01*
X91383D01*
X93312Y221199D01*
X95129Y221952D01*
X96765Y223045D01*
X98155Y224435D01*
X99248Y226071D01*
X100001Y227888D01*
X100384Y229817D01*
Y230209D01*
D02*
G37*
G36*
X89810D02*
X80416D01*
Y229817D01*
X80799Y227888D01*
X81552Y226071D01*
X82645Y224435D01*
X84035Y223045D01*
X85671Y221952D01*
X87488Y221199D01*
X89417Y220816D01*
X89810D01*
Y230209D01*
D02*
G37*
G36*
X265890Y220400D02*
X263527D01*
Y217448D01*
X265890D01*
Y220400D01*
D02*
G37*
G36*
X262346D02*
X259984D01*
Y217448D01*
X262346D01*
Y220400D01*
D02*
G37*
G36*
X111263Y229269D02*
X109537D01*
X107832Y228998D01*
X106190Y228465D01*
X104651Y227681D01*
X103254Y226666D01*
X102034Y225446D01*
X101019Y224049D01*
X100235Y222510D01*
X99702Y220868D01*
X99432Y219163D01*
Y217437D01*
X99702Y215732D01*
X100235Y214090D01*
X101019Y212551D01*
X102034Y211155D01*
X103254Y209934D01*
X104651Y208919D01*
X106190Y208135D01*
X107832Y207602D01*
X109537Y207331D01*
X111263D01*
X112969Y207602D01*
X114610Y208135D01*
X116149Y208919D01*
X117545Y209934D01*
X118766Y211155D01*
X119781Y212551D01*
X120565Y214090D01*
X121098Y215732D01*
X121369Y217437D01*
Y219163D01*
X121098Y220868D01*
X120565Y222510D01*
X119781Y224049D01*
X118766Y225446D01*
X117545Y226666D01*
X116149Y227681D01*
X114610Y228465D01*
X112969Y228998D01*
X111263Y229269D01*
D02*
G37*
G36*
X262346Y205225D02*
X259984D01*
Y202272D01*
X262346D01*
Y205225D01*
D02*
G37*
G36*
X193521Y229443D02*
X183679D01*
Y221963D01*
Y216451D01*
X190557D01*
Y215996D01*
X190798Y215094D01*
X191265Y214287D01*
X191322Y214229D01*
X191131Y213767D01*
X183679D01*
Y206287D01*
Y200775D01*
X191577D01*
X191761Y200458D01*
X192420Y199798D01*
X193228Y199331D01*
X194130Y199090D01*
X195063D01*
X195964Y199331D01*
X196772Y199798D01*
X197432Y200458D01*
X197898Y201265D01*
X198140Y202167D01*
Y203100D01*
X197898Y204001D01*
X197701Y204342D01*
X197742Y204382D01*
X198208Y205190D01*
X198450Y206091D01*
Y207024D01*
X198208Y207926D01*
X197742Y208734D01*
X197599Y208876D01*
X197557Y209194D01*
X197260Y209913D01*
X196786Y210529D01*
X195426Y211890D01*
X194809Y212363D01*
X194620Y212441D01*
X194614Y212503D01*
X194692Y212953D01*
X195468Y213160D01*
X196276Y213627D01*
X196935Y214287D01*
X197402Y215094D01*
X197643Y215996D01*
Y216929D01*
X197402Y217830D01*
X196935Y218638D01*
X196617Y218956D01*
Y219014D01*
X196425Y219977D01*
X195880Y220794D01*
X195615Y221059D01*
X195764Y221617D01*
X196268Y221752D01*
X197076Y222218D01*
X197735Y222878D01*
X198202Y223686D01*
X198443Y224587D01*
Y225520D01*
X198202Y226421D01*
X197735Y227229D01*
X197076Y227889D01*
X196268Y228355D01*
X195367Y228597D01*
X194433D01*
X194021Y228486D01*
X193521Y228870D01*
Y229443D01*
D02*
G37*
G36*
X265890Y185916D02*
X263528D01*
Y182963D01*
X265890D01*
Y185916D01*
D02*
G37*
G36*
X262347D02*
X259984D01*
Y182963D01*
X262347D01*
Y185916D01*
D02*
G37*
G36*
X259000Y206209D02*
X251126D01*
Y204362D01*
X250382D01*
X249688Y204271D01*
X249042Y204003D01*
X248486Y203577D01*
X247605Y202695D01*
X247179Y202140D01*
X246911Y201494D01*
X246820Y200800D01*
Y183910D01*
X242763Y179854D01*
X236776D01*
Y183971D01*
X236684Y184665D01*
X236417Y185311D01*
X235991Y185867D01*
X235435Y186293D01*
X234789Y186560D01*
X234095Y186652D01*
X233401Y186560D01*
X232816Y186318D01*
X232230Y186560D01*
X231536Y186652D01*
X230842Y186560D01*
X230257Y186318D01*
X229671Y186560D01*
X228977Y186652D01*
X228926Y186697D01*
Y188515D01*
X229235Y188824D01*
X229702Y189632D01*
X229943Y190533D01*
Y191466D01*
X229702Y192368D01*
X229235Y193176D01*
X228576Y193835D01*
X227768Y194302D01*
X226867Y194543D01*
X225934D01*
X225032Y194302D01*
X224224Y193835D01*
X223565Y193176D01*
X223098Y192368D01*
X222857Y191466D01*
Y190717D01*
X222115Y190518D01*
X222102Y190568D01*
X221635Y191376D01*
X220976Y192035D01*
X220168Y192502D01*
X219267Y192743D01*
X218334D01*
X217432Y192502D01*
X216624Y192035D01*
X215965Y191376D01*
X215681Y190885D01*
X215479Y190802D01*
X215058Y190761D01*
X214363Y191225D01*
X213400Y191417D01*
X197061D01*
X196927Y191917D01*
X197076Y192002D01*
X197735Y192662D01*
X198202Y193470D01*
X198443Y194371D01*
Y195304D01*
X198202Y196205D01*
X197735Y197013D01*
X197076Y197673D01*
X196268Y198140D01*
X195367Y198381D01*
X194433D01*
X193532Y198140D01*
X193448Y198091D01*
X183679D01*
Y190610D01*
Y185099D01*
X193521D01*
Y186383D01*
X211093D01*
X211227Y185883D01*
X210624Y185535D01*
X209965Y184876D01*
X209498Y184068D01*
X209257Y183167D01*
Y182234D01*
X209498Y181332D01*
X209965Y180524D01*
X210283Y180206D01*
Y179359D01*
X210475Y178395D01*
X211020Y177579D01*
X213502Y175097D01*
X214319Y174551D01*
X214644Y174487D01*
X214850Y174031D01*
X214698Y173768D01*
X214457Y172866D01*
Y171933D01*
X214698Y171032D01*
X214854Y170763D01*
X214842Y170727D01*
X214287Y170301D01*
X213861Y169746D01*
X213743Y169461D01*
X213568Y169402D01*
X212667Y169643D01*
X211734D01*
X210832Y169402D01*
X210024Y168935D01*
X209365Y168276D01*
X208898Y167468D01*
X208657Y166567D01*
Y165633D01*
X208898Y164732D01*
X209365Y163924D01*
X210024Y163265D01*
X210832Y162798D01*
X211734Y162557D01*
X212667D01*
X213124Y162679D01*
X213573Y162786D01*
X213772Y162359D01*
X213861Y162144D01*
X214287Y161589D01*
X214842Y161163D01*
X215488Y160895D01*
X216182Y160804D01*
X216254Y160741D01*
Y159065D01*
X215965Y158776D01*
X215498Y157968D01*
X215297Y157218D01*
X214632Y157040D01*
X213824Y156573D01*
X213165Y155913D01*
X212698Y155105D01*
X212457Y154204D01*
Y153271D01*
X212698Y152370D01*
X213165Y151562D01*
X213593Y151134D01*
Y145083D01*
X213502Y144390D01*
Y143021D01*
X213040Y142830D01*
X212190Y143680D01*
X211373Y144225D01*
X210410Y144417D01*
X198084D01*
X197842Y144917D01*
X198202Y145539D01*
X198443Y146441D01*
Y147374D01*
X198202Y148275D01*
X197735Y149083D01*
X197076Y149742D01*
X196268Y150209D01*
X195367Y150450D01*
X194433D01*
X194019Y150339D01*
X193521D01*
Y151062D01*
X183679D01*
Y143582D01*
Y138070D01*
X193521D01*
Y139383D01*
X207714D01*
X208002Y138883D01*
X207798Y138530D01*
X207557Y137629D01*
Y136696D01*
X207798Y135795D01*
X208265Y134987D01*
X208924Y134327D01*
X209732Y133860D01*
X210633Y133619D01*
X210722D01*
X212620Y131720D01*
X213437Y131175D01*
X213957Y131071D01*
X213974Y131053D01*
X214138Y130525D01*
X213861Y130164D01*
X213593Y129517D01*
X213502Y128824D01*
Y123902D01*
X213513Y123812D01*
X202318Y112617D01*
X197559D01*
X197352Y113117D01*
X197735Y113500D01*
X198202Y114308D01*
X198443Y115209D01*
Y116142D01*
X198202Y117043D01*
X197735Y117851D01*
X197076Y118511D01*
X196268Y118977D01*
X195367Y119219D01*
X194433D01*
X194021Y119108D01*
X193521Y119492D01*
Y119710D01*
X183679D01*
Y112229D01*
Y106718D01*
X193521D01*
Y107583D01*
X203361D01*
X204324Y107775D01*
X205140Y108320D01*
X216025Y119205D01*
X216665Y118565D01*
X217473Y118098D01*
X218374Y117857D01*
X219307D01*
X220209Y118098D01*
X221017Y118565D01*
X221220Y118769D01*
X221424Y118565D01*
X222232Y118098D01*
X223133Y117857D01*
X224066D01*
X224968Y118098D01*
X225776Y118565D01*
X225938Y118543D01*
X226065Y118324D01*
X226724Y117665D01*
X227532Y117198D01*
X228433Y116957D01*
X229366D01*
X230268Y117198D01*
X231076Y117665D01*
X231735Y118324D01*
X232202Y119132D01*
X232443Y120034D01*
Y120966D01*
X232338Y121358D01*
X232876Y121581D01*
X233432Y122007D01*
X233602Y122229D01*
X235768D01*
Y130497D01*
X234053D01*
Y132594D01*
X242711D01*
X243674Y132786D01*
X244491Y133331D01*
X250664Y139505D01*
X251126Y139313D01*
Y139227D01*
X259000D01*
Y148282D01*
X251780D01*
Y158536D01*
X252435D01*
X252474Y158243D01*
X252742Y157597D01*
X253168Y157042D01*
X254066Y156144D01*
X254621Y155718D01*
X255267Y155450D01*
X255961Y155359D01*
X256430D01*
X256924Y154865D01*
X257732Y154398D01*
X258633Y154157D01*
X259566D01*
X260468Y154398D01*
X261276Y154865D01*
X261935Y155524D01*
X262402Y156332D01*
X262643Y157234D01*
Y158167D01*
X262415Y159020D01*
X262442Y159176D01*
X262641Y159520D01*
X265890D01*
Y162473D01*
X262937D01*
X259984D01*
Y161542D01*
X259588Y161238D01*
X259566Y161243D01*
X259000D01*
Y167591D01*
X251126D01*
Y165739D01*
X250470Y165653D01*
X249823Y165385D01*
X249268Y164959D01*
X247205Y162895D01*
X246779Y162340D01*
X246511Y161694D01*
X246420Y161000D01*
Y146310D01*
X240074Y139965D01*
X236776D01*
Y144390D01*
X236684Y145083D01*
X236417Y145730D01*
X235991Y146285D01*
X235435Y146711D01*
X234789Y146979D01*
X234095Y147070D01*
X233401Y146979D01*
X232816Y146736D01*
X232230Y146979D01*
X231536Y147070D01*
X230842Y146979D01*
X230257Y146736D01*
X229671Y146979D01*
X229007Y147066D01*
Y148196D01*
X229435Y148624D01*
X229902Y149432D01*
X230143Y150333D01*
Y151267D01*
X229902Y152168D01*
X229435Y152976D01*
X228776Y153635D01*
X227968Y154102D01*
X227066Y154343D01*
X226133D01*
X225455Y154162D01*
X224872Y154407D01*
X224802Y154668D01*
X224335Y155476D01*
X223676Y156135D01*
X222868Y156602D01*
X222343Y156742D01*
Y157067D01*
X222102Y157968D01*
X221635Y158776D01*
X221287Y159124D01*
Y160793D01*
X221300Y160804D01*
X221994Y160895D01*
X222580Y161138D01*
X223165Y160895D01*
X223859Y160804D01*
X224553Y160895D01*
X225139Y161138D01*
X225343Y161053D01*
X225683Y160684D01*
X225631Y160416D01*
X225457Y159766D01*
Y158834D01*
X225698Y157932D01*
X226165Y157124D01*
X226824Y156465D01*
X227632Y155998D01*
X228534Y155757D01*
X229467D01*
X230368Y155998D01*
X231176Y156465D01*
X231835Y157124D01*
X232302Y157932D01*
X232543Y158834D01*
Y159766D01*
X232302Y160668D01*
X232648Y161068D01*
X232876Y161163D01*
X233432Y161589D01*
X233602Y161811D01*
X235768D01*
Y170079D01*
X234053D01*
Y172483D01*
X244800D01*
X245763Y172675D01*
X246580Y173220D01*
X251205Y177845D01*
X259000D01*
Y186900D01*
X252180D01*
Y197154D01*
X253072D01*
X253105Y197112D01*
X254662Y195554D01*
X255218Y195128D01*
X255864Y194860D01*
X256558Y194769D01*
X266670D01*
X267364Y194860D01*
X268010Y195128D01*
X268565Y195554D01*
X268768Y195757D01*
X269466D01*
X270368Y195998D01*
X271176Y196465D01*
X271835Y197124D01*
X272302Y197932D01*
X272543Y198834D01*
Y199767D01*
X272302Y200668D01*
X271835Y201476D01*
X271176Y202135D01*
X270368Y202602D01*
X269466Y202843D01*
X268533D01*
X267632Y202602D01*
X266824Y202135D01*
X266390Y201701D01*
X265890Y201908D01*
Y205225D01*
X263527D01*
Y201682D01*
X262937D01*
Y201091D01*
X259984D01*
Y200130D01*
X259000D01*
Y206209D01*
D02*
G37*
G36*
X265890Y181782D02*
X263528D01*
Y178830D01*
X265890D01*
Y181782D01*
D02*
G37*
G36*
X262347D02*
X259984D01*
Y178830D01*
X262347D01*
Y181782D01*
D02*
G37*
G36*
X193521Y182414D02*
Y182414D01*
X183679D01*
Y174934D01*
Y169422D01*
X193521D01*
Y169992D01*
X194021Y170376D01*
X194433Y170265D01*
X195367D01*
X196268Y170507D01*
X197076Y170973D01*
X197735Y171633D01*
X198202Y172441D01*
X198443Y173342D01*
Y174275D01*
X198202Y175176D01*
X197735Y175984D01*
X197465Y176254D01*
X197735Y176524D01*
X198202Y177332D01*
X198443Y178234D01*
Y179166D01*
X198202Y180068D01*
X197735Y180876D01*
X197076Y181535D01*
X196268Y182002D01*
X195367Y182243D01*
X194433D01*
X194021Y182133D01*
X193521Y182414D01*
D02*
G37*
G36*
X265890Y166607D02*
X263527D01*
Y163654D01*
X265890D01*
Y166607D01*
D02*
G37*
G36*
X262346D02*
X259984D01*
Y163654D01*
X262346D01*
Y166607D01*
D02*
G37*
G36*
X88561Y158643D02*
X86199D01*
Y155691D01*
X88561D01*
Y158643D01*
D02*
G37*
G36*
X85018D02*
X82656D01*
Y155691D01*
X85018D01*
Y158643D01*
D02*
G37*
G36*
X193521Y166738D02*
Y166738D01*
X183679D01*
Y159258D01*
Y153746D01*
X192656D01*
X193432Y153298D01*
X194334Y153057D01*
X195266D01*
X196168Y153298D01*
X196976Y153765D01*
X197635Y154424D01*
X198102Y155232D01*
X198343Y156133D01*
Y157067D01*
X198102Y157968D01*
X197635Y158776D01*
X196976Y159435D01*
X196827Y159521D01*
Y160021D01*
X197076Y160165D01*
X197735Y160824D01*
X198202Y161632D01*
X198443Y162533D01*
Y163467D01*
X198202Y164368D01*
X197735Y165176D01*
X197076Y165835D01*
X196268Y166302D01*
X195367Y166543D01*
X194433D01*
X194021Y166433D01*
X193521Y166738D01*
D02*
G37*
G36*
X88561Y154509D02*
X86199D01*
Y151557D01*
X88561D01*
Y154509D01*
D02*
G37*
G36*
X85018D02*
X82656D01*
Y151557D01*
X85018D01*
Y154509D01*
D02*
G37*
G36*
X265890Y147298D02*
X263527D01*
Y144345D01*
X265890D01*
Y147298D01*
D02*
G37*
G36*
X262346D02*
X259984D01*
Y144345D01*
X262346D01*
Y147298D01*
D02*
G37*
G36*
X265890Y143164D02*
X263527D01*
Y140211D01*
X265890D01*
Y143164D01*
D02*
G37*
G36*
X262346D02*
X259984D01*
Y140211D01*
X262346D01*
Y143164D01*
D02*
G37*
G36*
X265890Y127989D02*
X263528D01*
Y125036D01*
X265890D01*
Y127989D01*
D02*
G37*
G36*
X262347D02*
X259984D01*
Y125036D01*
X262347D01*
Y127989D01*
D02*
G37*
G36*
X193521Y135386D02*
X183679D01*
Y127906D01*
Y122394D01*
X193394D01*
X193732Y122198D01*
X194633Y121957D01*
X195566D01*
X196468Y122198D01*
X197276Y122665D01*
X197935Y123324D01*
X198402Y124132D01*
X198643Y125033D01*
Y125967D01*
X198402Y126868D01*
X197935Y127676D01*
X197276Y128335D01*
X197256Y128483D01*
X197735Y128962D01*
X198202Y129770D01*
X198443Y130671D01*
Y131604D01*
X198202Y132505D01*
X197735Y133313D01*
X197076Y133973D01*
X196268Y134440D01*
X195367Y134681D01*
X194433D01*
X194339Y134656D01*
X193995Y134701D01*
X193521D01*
Y135386D01*
D02*
G37*
G36*
X296825Y119409D02*
X293091D01*
Y115675D01*
X294172Y115964D01*
X295159Y116535D01*
X295965Y117341D01*
X296536Y118328D01*
X296825Y119409D01*
D02*
G37*
G36*
X291910D02*
X288175D01*
X288464Y118328D01*
X289035Y117341D01*
X289841Y116535D01*
X290828Y115964D01*
X291910Y115675D01*
Y119409D01*
D02*
G37*
G36*
Y114325D02*
X290828Y114036D01*
X289841Y113465D01*
X289035Y112659D01*
X288464Y111672D01*
X288175Y110591D01*
X291910D01*
Y114325D01*
D02*
G37*
G36*
X265890Y108679D02*
X263528D01*
Y105727D01*
X265890D01*
Y108679D01*
D02*
G37*
G36*
X262347D02*
X259984D01*
Y105727D01*
X262347D01*
Y108679D01*
D02*
G37*
G36*
X265890Y104546D02*
X263528D01*
Y101593D01*
X265890D01*
Y104546D01*
D02*
G37*
G36*
X262347D02*
X259984D01*
Y101593D01*
X262347D01*
Y104546D01*
D02*
G37*
G36*
X26484Y164961D02*
X14518D01*
Y88016D01*
X26484D01*
Y164961D01*
D02*
G37*
G36*
X265890Y89371D02*
X263528D01*
Y86418D01*
X265890D01*
Y89371D01*
D02*
G37*
G36*
X262347D02*
X259984D01*
Y86418D01*
X262347D01*
Y89371D01*
D02*
G37*
G36*
X265890Y85237D02*
X263528D01*
Y82284D01*
X265890D01*
Y85237D01*
D02*
G37*
G36*
Y70061D02*
X263528D01*
Y67109D01*
X265890D01*
Y70061D01*
D02*
G37*
G36*
X262347D02*
X259984D01*
Y67109D01*
X262347D01*
Y70061D01*
D02*
G37*
G36*
X265890Y65928D02*
X263528D01*
Y62975D01*
X265890D01*
Y65928D01*
D02*
G37*
G36*
X262347D02*
X259984D01*
Y62975D01*
X262347D01*
Y65928D01*
D02*
G37*
G36*
X265890Y50752D02*
X263528D01*
Y47800D01*
X265890D01*
Y50752D01*
D02*
G37*
G36*
X262347D02*
X259984D01*
Y47800D01*
X262347D01*
Y50752D01*
D02*
G37*
G36*
X265890Y31443D02*
X263528D01*
Y28491D01*
X265890D01*
Y31443D01*
D02*
G37*
G36*
X262347D02*
X259984D01*
Y28491D01*
X262347D01*
Y31443D01*
D02*
G37*
G36*
X265890Y27310D02*
X263528D01*
Y24357D01*
X265890D01*
Y27310D01*
D02*
G37*
G36*
X262347D02*
X259984D01*
Y24357D01*
X262347D01*
Y27310D01*
D02*
G37*
G36*
X144725Y20409D02*
X140991D01*
Y16674D01*
X142072Y16964D01*
X143059Y17534D01*
X143865Y18340D01*
X144436Y19328D01*
X144725Y20409D01*
D02*
G37*
G36*
X139809D02*
X136075D01*
X136364Y19328D01*
X136935Y18340D01*
X137741Y17534D01*
X138728Y16964D01*
X139809Y16674D01*
Y20409D01*
D02*
G37*
%LPD*%
D13*
X211100Y136800D02*
Y137162D01*
X170600Y133200D02*
X174000Y136600D01*
X188690Y141900D02*
X210410D01*
X226490Y134612D02*
X226874Y134996D01*
X210410Y141900D02*
X215210Y137100D01*
X226490Y126435D02*
Y134612D01*
X174000Y136600D02*
Y137162D01*
X215210Y137100D02*
X218083D01*
X211100Y136800D02*
X214400Y133500D01*
X223587Y137162D02*
X223787Y137362D01*
Y141857D01*
X169400Y137162D02*
Y141100D01*
X234095Y245108D02*
X237292D01*
X237400Y245000D01*
X234095Y205526D02*
X236774D01*
X237100Y205200D01*
X234095Y165945D02*
X236545D01*
X236800Y166200D01*
X234095Y126363D02*
X234132Y126400D01*
X237100D01*
X234095Y86782D02*
X236582D01*
X236600Y86800D01*
X234095Y47200D02*
X237100D01*
X286400Y184500D02*
X286600Y184700D01*
X288800D01*
X216191Y200658D02*
Y205517D01*
X194567Y202633D02*
X194596D01*
X216191Y200658D02*
X216200Y200649D01*
X168600Y200600D02*
X172515Y204515D01*
X192685D02*
X194567Y202633D01*
X216182Y205526D02*
X216191Y205517D01*
X221300Y200649D02*
Y205526D01*
X176395Y58718D02*
X176981Y58132D01*
X220532D01*
X176395Y58718D02*
Y63429D01*
X176981Y91415D02*
X218155D01*
X176395Y90830D02*
X176981Y91415D01*
X176395Y84617D02*
Y90830D01*
X188958Y110100D02*
X203361D01*
X216125Y126306D02*
X216182Y126363D01*
X203361Y110100D02*
X216125Y122864D01*
Y126306D01*
X218791Y121450D02*
X218841Y121400D01*
X218741Y126363D02*
X218791Y126313D01*
Y121450D02*
Y126313D01*
X156900Y31500D02*
Y72800D01*
X156700Y31300D02*
X156900Y31500D01*
X228989Y159311D02*
X229000Y159300D01*
X228977Y165945D02*
X228989Y165933D01*
Y159311D02*
Y165933D01*
X292200Y59700D02*
X292500Y60000D01*
X287200Y59700D02*
X292200D01*
X286300Y58800D02*
X287200Y59700D01*
X286300Y9600D02*
Y58800D01*
X164150Y13050D02*
X164300Y12900D01*
X164150Y13050D02*
Y37950D01*
X151300Y10000D02*
Y78800D01*
X149100Y81000D02*
X151300Y78800D01*
X140400Y81000D02*
X149100D01*
X70200Y136552D02*
X73600Y139952D01*
Y154400D01*
X70200Y124600D02*
Y136552D01*
Y124600D02*
X73600Y121200D01*
Y103600D02*
Y121200D01*
X62550Y140050D02*
X69650D01*
X69700Y140100D01*
X73600Y154400D02*
X74300Y155100D01*
X69600Y150100D02*
X69700Y150200D01*
X62600Y150100D02*
X69600D01*
X74300Y155100D02*
X77735D01*
X73600Y91900D02*
Y103600D01*
X75554Y101646D01*
X79754D02*
X80400Y101000D01*
X75554Y101646D02*
X79754D01*
X73600Y91900D02*
X74500Y91000D01*
X80400D01*
X62550Y159950D02*
X69650D01*
X69700Y159900D01*
X62500Y160000D02*
X62550Y159950D01*
X62500Y150000D02*
X62600Y150100D01*
X62500Y140000D02*
X62550Y140050D01*
X150638Y101823D02*
Y140462D01*
X150500Y140600D02*
X150638Y140462D01*
X149814Y101000D02*
X150638Y101823D01*
X140400Y101000D02*
X149814D01*
X140400Y111000D02*
X146514D01*
X147100Y111585D01*
Y149800D01*
X153500Y91585D02*
Y159800D01*
X163900Y76800D02*
Y118500D01*
Y38200D02*
Y76800D01*
Y38200D02*
X164150Y37950D01*
X167811Y42211D02*
Y43211D01*
X172353Y47753D01*
X167400Y41800D02*
X167811Y42211D01*
X163962Y118638D02*
X164000Y118600D01*
X163900Y118500D02*
X164000Y118600D01*
X163962Y118638D02*
Y159488D01*
X163750Y159700D02*
Y197650D01*
X160300Y214100D02*
Y249900D01*
X159900Y213700D02*
X160300Y214100D01*
X160100Y169400D02*
Y213500D01*
X159900Y213700D02*
X160100Y213500D01*
X156500Y204300D02*
X156900Y204700D01*
Y229800D01*
X157000Y229900D01*
X156500Y192300D02*
Y204300D01*
X160000Y133500D02*
Y169300D01*
X160100Y169400D01*
X156500Y192300D02*
X156600Y192200D01*
Y149382D02*
X156700Y149282D01*
X156600Y149382D02*
Y192200D01*
X156700Y112500D02*
Y149282D01*
X159800Y90900D02*
X160000Y91100D01*
Y133500D01*
X160150Y58250D02*
Y90550D01*
Y58250D02*
X160500Y57900D01*
X159800Y90900D02*
X160150Y90550D01*
X152914Y91000D02*
X153500Y91585D01*
X140400Y91000D02*
X152914D01*
X156800Y72900D02*
Y112400D01*
Y72900D02*
X156900Y72800D01*
X156700Y112500D02*
X156800Y112400D01*
X163750Y159700D02*
X163962Y159488D01*
X163738Y237938D02*
X164000Y238200D01*
X163700Y197700D02*
X163738Y197738D01*
Y237938D01*
X226346Y205599D02*
X226418Y205671D01*
X220700Y261300D02*
X220738Y261262D01*
Y251214D02*
Y261262D01*
X220700Y261300D02*
Y261500D01*
X218741Y17241D02*
Y23184D01*
X217900Y16400D02*
X218741Y17241D01*
X188600Y16400D02*
X217900D01*
X176500Y12500D02*
Y16295D01*
X176395Y16400D02*
X176500Y16295D01*
X177300Y11700D02*
X222500D01*
X176500Y12500D02*
X177300Y11700D01*
X222500D02*
X223859Y13059D01*
Y23184D01*
X176307Y22000D02*
X176395Y21912D01*
X170400Y22000D02*
X176307D01*
X169475Y22925D02*
X170400Y22000D01*
X169200Y26000D02*
X169475Y25725D01*
Y22925D02*
Y25725D01*
X221200Y28788D02*
X221250Y28738D01*
Y23234D02*
X221300Y23184D01*
X221250Y23234D02*
Y28738D01*
X176395Y28186D02*
Y32076D01*
X215596Y27600D02*
X216182Y27014D01*
Y23184D02*
Y27014D01*
X176981Y27600D02*
X215596D01*
X176395Y28186D02*
X176981Y27600D01*
X188600Y32076D02*
X208576D01*
X218741Y42241D02*
Y47200D01*
X208576Y32076D02*
X218741Y42241D01*
X215614Y42300D02*
X216110Y42796D01*
Y47128D01*
X177300Y42300D02*
X215614D01*
X216110Y47128D02*
X216182Y47200D01*
X176395Y41395D02*
X177300Y42300D01*
X176395Y37588D02*
Y41395D01*
X172353Y47753D02*
X176395D01*
X166900Y46900D02*
X167176Y46624D01*
X166900Y46900D02*
Y50500D01*
X169665Y53264D01*
X163700Y197700D02*
X163750Y197650D01*
X229049Y43251D02*
Y47128D01*
X223931Y43869D02*
X227051Y40749D01*
X229049Y43251D02*
X230989Y41311D01*
X231989D01*
X232400Y40900D01*
X227051Y40749D02*
X227503D01*
X223859Y47200D02*
X223931Y47128D01*
Y43869D02*
Y47128D01*
X228977Y47200D02*
X229049Y47128D01*
X221372Y39828D02*
Y47128D01*
Y39828D02*
X221500Y39700D01*
X226400Y31700D02*
X226409Y31691D01*
Y23193D02*
Y31691D01*
Y23193D02*
X226418Y23184D01*
X221300Y47200D02*
X221372Y47128D01*
X169665Y53264D02*
X176395D01*
X221995Y52833D02*
Y53415D01*
X223859Y55279D02*
Y62766D01*
X221995Y53415D02*
X223859Y55279D01*
X226418Y53566D02*
X226918Y54066D01*
X231600Y47264D02*
Y54300D01*
X229049Y59292D02*
Y62654D01*
Y59292D02*
X230014Y58327D01*
Y55886D02*
Y58327D01*
X231536Y62726D02*
X231609Y62654D01*
X226418Y47200D02*
Y53566D01*
X231999Y56804D02*
Y59149D01*
Y56804D02*
X234002Y54800D01*
X231609Y59539D02*
Y62654D01*
X230014Y55886D02*
X231600Y54300D01*
X226918Y56907D02*
X227152Y57141D01*
X231609Y59539D02*
X231999Y59149D01*
X228977Y62726D02*
X229049Y62654D01*
X226918Y54066D02*
Y56907D01*
X188653Y47700D02*
X193800D01*
X188600Y47753D02*
X188653Y47700D01*
X221300Y58900D02*
Y62766D01*
X220532Y58132D02*
X221300Y58900D01*
X216007Y63429D02*
X216182Y63254D01*
X188600Y63429D02*
X216007D01*
X216182Y62766D02*
Y63254D01*
X171700Y69000D02*
X176336D01*
X176395Y68941D01*
X170000Y70700D02*
Y75700D01*
Y70700D02*
X171700Y69000D01*
X218600Y73600D02*
X218671Y73529D01*
Y62836D02*
Y73529D01*
Y62836D02*
X218741Y62766D01*
X211035Y87946D02*
X212200Y86782D01*
X210500Y87946D02*
X211035D01*
X221372Y82328D02*
X221400Y82300D01*
Y81300D02*
Y82300D01*
X221300Y86782D02*
X221372Y86709D01*
Y82328D02*
Y86709D01*
X219205Y79105D02*
X221400Y81300D01*
X188600Y79105D02*
X219205D01*
X166900Y82300D02*
X170095Y79105D01*
X176395D01*
X212200Y86782D02*
X216182D01*
X218155Y91415D02*
X218741Y90830D01*
Y86782D02*
Y90830D01*
X175714Y94100D02*
X176395Y94781D01*
X168600Y94100D02*
X175714D01*
X221700Y93670D02*
Y93700D01*
Y93670D02*
X223859Y91511D01*
Y86782D02*
Y91511D01*
X220514Y96562D02*
X220786D01*
X221372Y97148D02*
Y102275D01*
X220786Y96562D02*
X221372Y97148D01*
X188600Y94781D02*
X218733D01*
X220514Y96562D01*
X225200Y96600D02*
Y97182D01*
X223931Y98450D02*
X225200Y97182D01*
X226490Y91190D02*
X228676Y93376D01*
X226490Y86854D02*
Y91190D01*
X223931Y98450D02*
Y102275D01*
X221300Y102348D02*
X221372Y102275D01*
X226418Y86782D02*
X226490Y86854D01*
X228977Y97123D02*
Y102268D01*
Y97123D02*
X231600Y94500D01*
X223859Y102348D02*
X223931Y102275D01*
X231600Y86805D02*
Y94500D01*
X168800Y99900D02*
X176002D01*
X176395Y100293D01*
X216110Y102420D02*
X216182Y102348D01*
X212600Y105800D02*
X213182D01*
X213700Y106318D02*
X215425D01*
X216110Y102420D02*
Y105633D01*
X213182Y105800D02*
X213700Y106318D01*
X215425D02*
X216110Y105633D01*
X166138Y105344D02*
Y109986D01*
Y105344D02*
X166800Y104682D01*
Y104100D02*
Y104682D01*
X172122Y115970D02*
X176395D01*
X166138Y109986D02*
X172122Y115970D01*
X171282Y110500D02*
X176353D01*
X176395Y110458D01*
X169000Y108800D02*
X169582D01*
X171282Y110500D01*
X218741Y102348D02*
Y106741D01*
X221300Y109300D01*
X188600Y110458D02*
X188958Y110100D01*
X170600Y124800D02*
X171934Y126134D01*
X176395D01*
X170600Y121700D02*
Y124800D01*
X189234Y125500D02*
X195100D01*
X188600Y126134D02*
X189234Y125500D01*
X223787Y121587D02*
Y126291D01*
X223600Y121400D02*
X223787Y121587D01*
Y126291D02*
X223859Y126363D01*
X221300D02*
Y132400D01*
X220200Y133500D02*
X221300Y132400D01*
X214400Y133500D02*
X220200D01*
X218669Y141857D02*
X218741Y141929D01*
X218669Y137686D02*
Y141857D01*
X218083Y137100D02*
X218669Y137686D01*
X170600Y132231D02*
X171186Y131646D01*
X176395D01*
X170600Y132231D02*
Y133200D01*
X188600Y141810D02*
X188690Y141900D01*
X170110Y141810D02*
X176395D01*
X169400Y141100D02*
X170110Y141810D01*
X226418Y126363D02*
X226490Y126435D01*
X223787Y141857D02*
X223859Y141929D01*
X170886Y147322D02*
X176395D01*
X170300Y147908D02*
X170886Y147322D01*
X170300Y147908D02*
Y150800D01*
X216000Y153738D02*
X216110Y153628D01*
Y142001D02*
Y153628D01*
X221372Y142001D02*
Y153172D01*
X221500Y153300D01*
X221300Y141929D02*
X221372Y142001D01*
X170461Y157486D02*
X176395D01*
X168800Y156400D02*
X169374D01*
X170461Y157486D01*
X216110Y142001D02*
X216182Y141929D01*
X226490Y150690D02*
X226600Y150800D01*
X226490Y142001D02*
Y150690D01*
X226418Y141929D02*
X226490Y142001D01*
X218771Y156630D02*
X218800Y156600D01*
X218741Y165945D02*
X218771Y165915D01*
Y156630D02*
Y165915D01*
X194218Y156600D02*
X194800D01*
X188600Y157486D02*
X193332D01*
X194218Y156600D01*
X189246Y173809D02*
X194900D01*
X188600Y173162D02*
X189246Y173809D01*
X216027Y166100D02*
X216182Y165945D01*
X212200Y166100D02*
X216027D01*
X170702Y162998D02*
X176395D01*
X168000Y165700D02*
X170702Y162998D01*
X221300Y165945D02*
Y170494D01*
X219805Y171989D02*
X221300Y170494D01*
X218000Y172400D02*
X218411Y171989D01*
X219805D01*
X219900Y174700D02*
Y176291D01*
Y174700D02*
X223859Y170741D01*
X176133Y172900D02*
X176395Y173162D01*
X169200Y172900D02*
X176133D01*
X219314Y176877D02*
X219900Y176291D01*
X215282Y176877D02*
X219314D01*
X212800Y179359D02*
Y182700D01*
Y179359D02*
X215282Y176877D01*
X223859Y165945D02*
Y170741D01*
X223700Y175400D02*
X223787Y175487D01*
Y181438D02*
X223859Y181511D01*
X223787Y175487D02*
Y181438D01*
X227493Y174012D02*
Y174346D01*
X226411Y172929D02*
X227493Y174012D01*
X226411Y165952D02*
Y172929D01*
Y165952D02*
X226418Y165945D01*
X170626Y178674D02*
X176395D01*
X167100Y182200D02*
X170626Y178674D01*
X188661Y188900D02*
X213400D01*
X188600Y188839D02*
X188661Y188900D01*
X213400D02*
X216182Y186118D01*
Y181511D02*
Y186118D01*
X189191Y219600D02*
X193514D01*
X188600Y220191D02*
X189191Y219600D01*
X193514D02*
X194100Y219014D01*
X209920Y212362D02*
X211944Y210338D01*
X209500Y212362D02*
X209920D01*
X194100Y216462D02*
Y219014D01*
X170611Y188253D02*
X171197Y188839D01*
X170611Y186311D02*
Y188253D01*
X171197Y188839D02*
X176395D01*
X170200Y185900D02*
X170611Y186311D01*
X223339Y186762D02*
Y187177D01*
X221372Y181583D02*
Y184795D01*
X221300Y181511D02*
X221372Y181583D01*
Y184795D02*
X223339Y186762D01*
X226409Y181520D02*
Y190991D01*
X226418Y181511D02*
X226490Y181583D01*
X169551Y194351D02*
X176395D01*
X167075Y191875D02*
X169551Y194351D01*
X166800Y188800D02*
X167075Y189075D01*
Y191875D01*
X218771Y181540D02*
Y189171D01*
X218800Y189200D01*
X218741Y181511D02*
X218771Y181540D01*
X214463Y214010D02*
X223233D01*
X214100Y213647D02*
X214463Y214010D01*
X224910Y212251D02*
Y212333D01*
X226418Y205671D02*
Y210743D01*
X223233Y214010D02*
X224910Y212333D01*
Y212251D02*
X226418Y210743D01*
X222742Y216458D02*
X224363D01*
X225410Y215412D01*
X225992D01*
X221372Y217828D02*
X222742Y216458D01*
X221372Y217828D02*
Y221020D01*
X229049Y217698D02*
Y221020D01*
Y217698D02*
X229610Y217138D01*
Y216390D02*
X231536Y214464D01*
X231594Y217594D02*
Y221034D01*
X229610Y216390D02*
Y217138D01*
X231536Y221092D02*
X231594Y221034D01*
X232730Y216458D02*
X238764D01*
X231594Y217594D02*
X232730Y216458D01*
X221300Y221092D02*
X221372Y221020D01*
X226400Y191000D02*
X226409Y190991D01*
X172515Y204515D02*
X176395D01*
X188600D02*
X192685D01*
X217662Y210338D02*
X218741Y209259D01*
Y205526D02*
Y209259D01*
X211944Y210338D02*
X217662D01*
X170382Y210700D02*
X171382Y209700D01*
X169800Y210700D02*
X170382D01*
X171382Y209700D02*
X176068D01*
X176395Y210027D01*
X166600Y214849D02*
X171942Y220191D01*
X166600Y207400D02*
Y214849D01*
X171942Y220191D02*
X176395D01*
X222048Y210566D02*
Y211148D01*
Y210566D02*
X223787Y208827D01*
Y205599D02*
Y208827D01*
Y205599D02*
X223859Y205526D01*
X226346Y205599D02*
X226418Y205526D01*
X216241Y236064D02*
X216300Y236005D01*
X216241Y236064D02*
Y245049D01*
X188792Y235676D02*
X195000D01*
X188600Y235868D02*
X188792Y235676D01*
X169233Y233246D02*
X169644Y233658D01*
Y234944D01*
X170568Y235868D01*
X168000Y226100D02*
X175998D01*
X176395Y225703D01*
X170568Y235868D02*
X176395D01*
X223400Y229200D02*
X223787Y228813D01*
Y221165D02*
Y228813D01*
X218741Y221092D02*
Y231798D01*
X221843Y234900D01*
X223787Y221165D02*
X223859Y221092D01*
X226409Y221101D02*
Y231791D01*
X226400Y231800D02*
X226409Y231791D01*
X226359Y221033D02*
X226418Y221092D01*
X170700Y241400D02*
X176375D01*
X176395Y241380D01*
X170075Y242025D02*
Y245025D01*
Y242025D02*
X170700Y241400D01*
X170000Y245100D02*
X170075Y245025D01*
X211900Y235252D02*
X216182Y230970D01*
X211900Y235252D02*
Y245100D01*
X216182Y221092D02*
Y230970D01*
Y245108D02*
X216241Y245049D01*
X170756Y251544D02*
X176395D01*
X165200Y257100D02*
X170756Y251544D01*
X165200Y257100D02*
Y264401D01*
X170800Y258500D02*
Y261800D01*
X216700Y256802D02*
Y264401D01*
Y256802D02*
X218741Y254761D01*
Y245108D02*
Y254761D01*
X170800Y258500D02*
X172244Y257056D01*
X176395D01*
X220738Y251214D02*
X221300Y250652D01*
Y245108D02*
Y250652D01*
X189306Y250838D02*
X197700D01*
X188600Y251544D02*
X189306Y250838D01*
X223787Y245180D02*
Y252213D01*
X223600Y252400D02*
X223787Y252213D01*
X226932Y249721D02*
Y250302D01*
X223787Y245180D02*
X223859Y245108D01*
X226418D02*
X226490Y245180D01*
Y249279D02*
X226932Y249721D01*
X226490Y245180D02*
Y249279D01*
X226409Y62775D02*
X226418Y62766D01*
X226409Y62775D02*
Y72591D01*
X226400Y72600D02*
X226409Y72591D01*
X226400Y112500D02*
X226409Y112491D01*
Y102357D02*
X226418Y102348D01*
X226409Y102357D02*
Y112491D01*
X42100Y12900D02*
Y68600D01*
X43500Y70000D01*
X52500D01*
X226409Y181520D02*
X226418Y181511D01*
X226409Y221101D02*
X226418Y221092D01*
X228977Y221092D02*
X229049Y221020D01*
X228989Y237811D02*
X229000Y237800D01*
X228989Y237811D02*
Y245096D01*
X228977Y245108D02*
X228989Y245096D01*
X48300Y217318D02*
Y217900D01*
X47866Y216884D02*
X48300Y217318D01*
X47866Y114634D02*
Y216884D01*
Y114634D02*
X52500Y110000D01*
X238814Y216509D02*
X247209D01*
X238764Y216458D02*
X238814Y216509D01*
X247209D02*
X251300Y220600D01*
X228977Y137371D02*
X229293Y137055D01*
X228977Y137371D02*
Y141809D01*
X229293Y136779D02*
X231536Y134536D01*
X229293Y136779D02*
Y137055D01*
X45200Y253600D02*
X45400Y253800D01*
X45200Y101900D02*
Y253600D01*
X41889Y252128D02*
Y258489D01*
X41900Y258500D01*
X41800Y93400D02*
Y252039D01*
X41889Y252128D01*
X45200Y101900D02*
X47100Y100000D01*
X52500D01*
X231568Y245140D02*
Y253722D01*
X231600Y253753D01*
X231536Y245108D02*
X231568Y245140D01*
X45200Y90000D02*
X52500D01*
X41800Y93400D02*
X45200Y90000D01*
X229039Y198461D02*
X229100Y198400D01*
X228977Y205526D02*
X229039Y205465D01*
Y198461D02*
Y205465D01*
X228939Y120539D02*
Y126324D01*
X228900Y120500D02*
X228939Y120539D01*
Y126324D02*
X228977Y126363D01*
X228989Y76511D02*
X229000Y76500D01*
X228977Y86782D02*
X228989Y86770D01*
Y76511D02*
Y86770D01*
X231536Y205366D02*
Y214464D01*
Y126283D02*
Y134536D01*
X231609Y137283D02*
Y141737D01*
X233781Y135111D02*
X242711D01*
X231609Y137283D02*
X233781Y135111D01*
X231536Y165825D02*
Y174536D01*
X228977Y177095D02*
Y181351D01*
Y177095D02*
X231536Y174536D01*
X231609Y177394D02*
X234002Y175000D01*
X244800D01*
X231609Y177394D02*
Y181278D01*
X231536Y47200D02*
X231600Y47264D01*
X234002Y54800D02*
X240973D01*
X231536Y86742D02*
X231600Y86805D01*
X231536Y97566D02*
X234002Y95100D01*
X231536Y97566D02*
Y102268D01*
X234002Y95100D02*
X242000D01*
X231536Y141809D02*
X231609Y141737D01*
X252000Y27700D02*
X254863D01*
X255063Y27900D01*
X240700Y16400D02*
X252000Y27700D01*
X234002Y16400D02*
X240700D01*
X231609Y18794D02*
X234002Y16400D01*
X231609Y18794D02*
Y23112D01*
X231536Y23184D02*
X231609Y23112D01*
X254672Y66127D02*
X255063Y66518D01*
X252300Y66127D02*
X254672D01*
X240973Y54800D02*
X252300Y66127D01*
X252036Y105136D02*
X255063D01*
X242000Y95100D02*
X252036Y105136D01*
X242711Y135111D02*
X251355Y143754D01*
X255063D01*
X244800Y175000D02*
X252173Y182373D01*
X255063D01*
X231536Y181351D02*
X231609Y181278D01*
X251300Y220600D02*
X254672D01*
X255063Y220991D01*
X22500Y90000D02*
X16502D01*
X22500Y93999D01*
X16502D01*
X18501Y95998D02*
X21500D01*
X22500Y96998D01*
Y99997D01*
X23500D01*
X24499Y98997D01*
Y97997D01*
X22500Y99997D02*
X18501D01*
X22500Y101996D02*
Y103996D01*
Y102996D01*
X18501D01*
Y101996D01*
Y106994D02*
X22500D01*
X20501D01*
X19501Y107994D01*
X18501Y108994D01*
Y109994D01*
X22500Y112993D02*
Y114992D01*
Y113992D01*
X18501D01*
Y112993D01*
X16502Y123989D02*
X22500D01*
Y127988D01*
Y132986D02*
Y130987D01*
X21500Y129987D01*
X19501D01*
X18501Y130987D01*
Y132986D01*
X19501Y133986D01*
X20501D01*
Y129987D01*
X18501Y135985D02*
X22500Y137985D01*
X18501Y139984D01*
X22500Y144982D02*
Y142983D01*
X21500Y141983D01*
X19501D01*
X18501Y142983D01*
Y144982D01*
X19501Y145982D01*
X20501D01*
Y141983D01*
X22500Y147981D02*
X18501D01*
Y150980D01*
X19501Y151980D01*
X22500D01*
X17502Y154979D02*
X18501D01*
Y153979D01*
Y155979D01*
Y154979D01*
X21500D01*
X22500Y155979D01*
Y161977D02*
Y159977D01*
X21500Y158978D01*
X19501D01*
X18501Y159977D01*
Y161977D01*
X19501Y162976D01*
X20501D01*
Y158978D01*
D27*
X306743Y250900D02*
D03*
X287057D02*
D03*
D28*
X188600Y131646D02*
D03*
Y257056D02*
D03*
X188600Y115970D02*
D03*
X188600Y241379D02*
D03*
X188600Y100293D02*
D03*
X188600Y225703D02*
D03*
Y84617D02*
D03*
X188600Y210027D02*
D03*
X188600Y68941D02*
D03*
X188600Y194351D02*
D03*
Y53264D02*
D03*
X188600Y178674D02*
D03*
X188600Y37588D02*
D03*
Y162998D02*
D03*
X188600Y21912D02*
D03*
X188600Y147322D02*
D03*
X176395Y157486D02*
D03*
Y162998D02*
D03*
X188600Y157486D02*
D03*
X176395Y204515D02*
D03*
Y210027D02*
D03*
X188600Y204515D02*
D03*
X188600Y79105D02*
D03*
X176395Y84617D02*
D03*
Y79105D02*
D03*
X188600Y94781D02*
D03*
X176395Y100293D02*
D03*
Y94781D02*
D03*
X188600Y110458D02*
D03*
X176395Y115970D02*
D03*
Y110458D02*
D03*
X188600Y126134D02*
D03*
X176395Y131646D02*
D03*
Y126134D02*
D03*
X188600Y188839D02*
D03*
X176395Y194351D02*
D03*
Y188839D02*
D03*
X188600Y251544D02*
D03*
X176395Y257056D02*
D03*
Y251544D02*
D03*
X188600Y220191D02*
D03*
X176395Y225703D02*
D03*
Y220191D02*
D03*
X188600Y141810D02*
D03*
X176395Y147322D02*
D03*
Y141810D02*
D03*
X188600Y173162D02*
D03*
X176395Y178674D02*
D03*
Y173162D02*
D03*
X188600Y235868D02*
D03*
X176395Y241380D02*
D03*
Y235868D02*
D03*
X188600Y16400D02*
D03*
X176395Y21912D02*
D03*
Y16400D02*
D03*
X188600Y32076D02*
D03*
X176395Y37588D02*
D03*
Y32076D02*
D03*
X188600Y47753D02*
D03*
X176395Y53264D02*
D03*
Y47753D02*
D03*
X188600Y63429D02*
D03*
X176395Y68941D02*
D03*
Y63429D02*
D03*
D29*
X295772Y226000D02*
D03*
X304828D02*
D03*
D30*
X85609Y155100D02*
D03*
X262937Y124445D02*
D03*
Y47209D02*
D03*
Y27900D02*
D03*
Y105136D02*
D03*
Y66518D02*
D03*
X262937Y220991D02*
D03*
Y240300D02*
D03*
X262937Y85827D02*
D03*
X262937Y201682D02*
D03*
Y163064D02*
D03*
Y143754D02*
D03*
X262937Y182373D02*
D03*
X255063D02*
D03*
X255063Y143754D02*
D03*
Y163064D02*
D03*
Y201682D02*
D03*
X255063Y85827D02*
D03*
X255063Y240300D02*
D03*
Y220991D02*
D03*
X255063Y66518D02*
D03*
Y105136D02*
D03*
Y27900D02*
D03*
Y47209D02*
D03*
Y124445D02*
D03*
X77735Y155100D02*
D03*
D31*
X234095Y126363D02*
D03*
Y86782D02*
D03*
Y165945D02*
D03*
Y245108D02*
D03*
Y205526D02*
D03*
Y47200D02*
D03*
D32*
X216182Y23184D02*
D03*
X218741D02*
D03*
X221300D02*
D03*
X223859D02*
D03*
X226418D02*
D03*
X228977D02*
D03*
X231536D02*
D03*
X234095D02*
D03*
X216182Y47200D02*
D03*
X218741D02*
D03*
X221300D02*
D03*
X223859D02*
D03*
X226418D02*
D03*
X228977D02*
D03*
X231536D02*
D03*
Y205526D02*
D03*
X228977D02*
D03*
X226418D02*
D03*
X223859D02*
D03*
X221300D02*
D03*
X218741D02*
D03*
X216182D02*
D03*
X234095Y181511D02*
D03*
X231536D02*
D03*
X228977D02*
D03*
X226418D02*
D03*
X223859D02*
D03*
X221300D02*
D03*
X218741D02*
D03*
X216182D02*
D03*
Y221092D02*
D03*
X218741D02*
D03*
X221300D02*
D03*
X223859D02*
D03*
X226418D02*
D03*
X228977D02*
D03*
X231536D02*
D03*
X234095D02*
D03*
X216182Y245108D02*
D03*
X218741D02*
D03*
X221300D02*
D03*
X223859D02*
D03*
X226418D02*
D03*
X228977D02*
D03*
X231536D02*
D03*
X216182Y141929D02*
D03*
X218741D02*
D03*
X221300D02*
D03*
X223859D02*
D03*
X226418D02*
D03*
X228977D02*
D03*
X231536D02*
D03*
X234095D02*
D03*
X216182Y165945D02*
D03*
X218741D02*
D03*
X221300D02*
D03*
X223859D02*
D03*
X226418D02*
D03*
X228977D02*
D03*
X231536D02*
D03*
Y86782D02*
D03*
X228977D02*
D03*
X226418D02*
D03*
X223859D02*
D03*
X221300D02*
D03*
X218741D02*
D03*
X216182D02*
D03*
X234095Y62766D02*
D03*
X231536D02*
D03*
X228977D02*
D03*
X226418D02*
D03*
X223859D02*
D03*
X221300D02*
D03*
X218741D02*
D03*
X216182D02*
D03*
X231536Y126363D02*
D03*
X228977D02*
D03*
X226418D02*
D03*
X223859D02*
D03*
X221300D02*
D03*
X218741D02*
D03*
X216182D02*
D03*
X234095Y102348D02*
D03*
X231536D02*
D03*
X228977D02*
D03*
X226418D02*
D03*
X223859D02*
D03*
X221300D02*
D03*
X218741D02*
D03*
X216182D02*
D03*
D33*
X274335Y257474D02*
X276852Y254957D01*
X271800Y257700D02*
X272026Y257474D01*
X274335D01*
X276852Y241400D02*
Y254957D01*
X194580Y194838D02*
X194900D01*
X188625Y194325D02*
X194068D01*
X194580Y194838D01*
X188600Y241379D02*
X188775Y241554D01*
X194725D01*
X194900Y241730D01*
X188677Y131723D02*
X193995D01*
X188600Y131646D02*
X188677Y131723D01*
X193995D02*
X194580Y131138D01*
X194900D01*
X271700Y131900D02*
X277100D01*
Y116000D02*
Y131900D01*
Y147400D01*
X277100Y116000D02*
X277100Y116000D01*
X271700Y116000D02*
X277100D01*
X277100Y100500D02*
Y116000D01*
X271700Y147400D02*
X277100D01*
Y163100D01*
X271700Y100500D02*
X277100D01*
Y84800D02*
Y100500D01*
X277100Y163100D02*
X277100Y163100D01*
X271700Y163100D02*
X277100D01*
X277100D02*
Y178700D01*
Y69000D02*
Y84800D01*
X277100D02*
X277100Y84800D01*
X271700Y84800D02*
X277100D01*
X271700Y178700D02*
X277100D01*
Y195500D01*
Y53200D02*
Y69000D01*
X271700D02*
X277100D01*
X276852Y195748D02*
Y210300D01*
Y195748D02*
X277100Y195500D01*
X188747Y115823D02*
X194753D01*
X194900Y115676D01*
X271700Y53200D02*
X277100D01*
Y37500D02*
Y53200D01*
X271700Y210300D02*
X276852D01*
Y225700D01*
X188600Y115969D02*
X188747Y115823D01*
X188654Y100347D02*
X194647D01*
X271700Y37500D02*
X277100D01*
Y23353D02*
Y37500D01*
X188639Y147361D02*
X194126D01*
X194580Y146907D01*
X194900D01*
X188601Y162999D02*
X194499D01*
X276852Y225700D02*
Y241400D01*
X271700Y225700D02*
X276852D01*
X276852Y225700D01*
X188600Y100293D02*
X188654Y100347D01*
X275947Y22200D02*
X277100Y23353D01*
X271700Y22200D02*
X275947D01*
X188609Y84609D02*
X194392D01*
X188600Y147322D02*
X188639Y147361D01*
X188600Y162998D02*
X188601Y162999D01*
X271700Y241400D02*
X276852D01*
X188882Y68659D02*
X193797D01*
X188600Y84617D02*
X188609Y84609D01*
X292500Y190000D02*
Y190050D01*
X188600Y68941D02*
X188882Y68659D01*
X188613Y178687D02*
X194187D01*
X188600Y194351D02*
X188625Y194325D01*
X188600Y178674D02*
X188613Y178687D01*
X290347Y225700D02*
X290496Y225850D01*
X295622D01*
X188694Y22006D02*
X194306D01*
X193320Y209784D02*
X194681Y208423D01*
X295622Y225850D02*
X295772Y226000D01*
X189023Y225279D02*
X194674D01*
X194900Y225054D01*
X188668Y53332D02*
X194232D01*
X195938Y55038D01*
X196000D01*
X188600Y21912D02*
X188694Y22006D01*
X188843Y209784D02*
X193320D01*
X188600Y225703D02*
X189023Y225279D01*
X188600Y53264D02*
X188668Y53332D01*
X193506Y37594D02*
X195800Y35300D01*
X188600Y210027D02*
X188843Y209784D01*
X306743Y250900D02*
X313100D01*
X188606Y37594D02*
X193506D01*
X188622Y257078D02*
X194878D01*
X194900Y257100D01*
X188600Y37588D02*
X188606Y37594D01*
X188600Y257056D02*
X188622Y257078D01*
X287000Y219400D02*
Y250842D01*
X287057Y250900D01*
D34*
X283400Y203200D02*
Y235600D01*
X283300Y158000D02*
Y203100D01*
X283200Y157900D02*
X283300Y158000D01*
Y203100D02*
X283400Y203200D01*
X283200Y141400D02*
Y157900D01*
X234095Y137870D02*
X234681Y137284D01*
X249100Y145200D02*
Y161000D01*
X241184Y137284D02*
X249100Y145200D01*
X234681Y137284D02*
X241184D01*
X234095Y137870D02*
Y141809D01*
X283050Y6350D02*
Y41150D01*
X283000Y6300D02*
X283050Y6350D01*
X68800Y6299D02*
Y115000D01*
X283050Y41150D02*
X283100Y41200D01*
Y79700D01*
X74100Y125400D02*
X74439Y125739D01*
X75139D02*
X80400Y131000D01*
X74439Y125739D02*
X75139D01*
X74579Y125400D02*
X78979Y121000D01*
X80400D01*
X256100Y41200D02*
X259500D01*
X255063Y42237D02*
X256100Y41200D01*
X255063Y42237D02*
Y47209D01*
X283100Y79700D02*
Y129600D01*
X256000Y80000D02*
X259000D01*
X259300Y79700D01*
X255063Y80937D02*
X256000Y80000D01*
X255063Y80937D02*
Y85827D01*
X259207Y119100D02*
X259300Y119193D01*
X256300Y119100D02*
X259207D01*
X255063Y120337D02*
X256300Y119100D01*
X255063Y120337D02*
Y124445D01*
X251164Y163064D02*
X255063D01*
X258761Y158039D02*
X259100Y157700D01*
X255961Y158039D02*
X258761D01*
X255063Y158937D02*
Y163064D01*
Y158937D02*
X255961Y158039D01*
X256558Y197450D02*
X266670D01*
X255000Y199007D02*
X256558Y197450D01*
X266670D02*
X268521Y199300D01*
X269000D01*
X255000Y199007D02*
Y201619D01*
X255063Y201682D01*
X255063Y235907D02*
X255870Y235100D01*
X259600D01*
X255063Y235907D02*
Y240300D01*
X283200Y141400D02*
X284600Y140000D01*
X283200Y129700D02*
Y138600D01*
X283100Y129600D02*
X283200Y129700D01*
Y138600D02*
X284600Y140000D01*
X292500D01*
X235635Y56973D02*
X240073D01*
X234095Y60305D02*
X234828Y59573D01*
Y57780D02*
Y59573D01*
Y57780D02*
X235635Y56973D01*
X234095Y60305D02*
Y62726D01*
X244342Y221092D02*
X249600Y226350D01*
X234095Y221092D02*
X244342D01*
X249600Y226350D02*
Y238893D01*
X234902Y177173D02*
X243873D01*
X234095Y177980D02*
X234902Y177173D01*
X234095Y177980D02*
Y181351D01*
X234902Y97273D02*
X240673D01*
X234095Y98080D02*
X234902Y97273D01*
X234095Y98080D02*
Y102268D01*
X239800Y18573D02*
X249900Y28673D01*
X234902Y18573D02*
X239800D01*
X249900Y28673D02*
Y46100D01*
X234095Y19380D02*
Y23184D01*
Y19380D02*
X234902Y18573D01*
X240073Y56973D02*
X249900Y66800D01*
Y84900D01*
X250100Y106700D02*
Y123893D01*
X240673Y97273D02*
X250100Y106700D01*
Y123893D02*
X250907Y124700D01*
X243873Y177173D02*
X249500Y182800D01*
X249900Y46100D02*
X251009Y47209D01*
X255063D01*
X249900Y84900D02*
X250827Y85827D01*
X255063D01*
X250907Y124700D02*
X254808D01*
X249100Y161000D02*
X251164Y163064D01*
X249500Y200800D02*
X250382Y201682D01*
X255063D01*
X249500Y182800D02*
Y200800D01*
X254463Y239700D02*
X255063Y240300D01*
X249600Y238893D02*
X250407Y239700D01*
X254463D01*
D35*
X292500Y190000D02*
D03*
Y110000D02*
D03*
Y120000D02*
D03*
X302500D02*
D03*
X292500Y180000D02*
D03*
X52500Y60000D02*
D03*
Y120000D02*
D03*
X62500Y170000D02*
D03*
X140400Y21000D02*
D03*
Y101000D02*
D03*
Y111000D02*
D03*
Y121000D02*
D03*
Y131000D02*
D03*
Y91000D02*
D03*
Y81000D02*
D03*
Y71000D02*
D03*
Y61000D02*
D03*
Y51000D02*
D03*
Y41000D02*
D03*
Y31000D02*
D03*
X80400Y21000D02*
D03*
Y31000D02*
D03*
Y41000D02*
D03*
Y51000D02*
D03*
Y61000D02*
D03*
Y71000D02*
D03*
Y81000D02*
D03*
Y91000D02*
D03*
Y121000D02*
D03*
Y111000D02*
D03*
Y101000D02*
D03*
X52500Y210000D02*
D03*
X62500Y200000D02*
D03*
X52500D02*
D03*
X62500Y190000D02*
D03*
X52500D02*
D03*
X62500Y180000D02*
D03*
X52500D02*
D03*
Y170000D02*
D03*
X62500Y160000D02*
D03*
X52500D02*
D03*
X62500Y150000D02*
D03*
X52500D02*
D03*
X62500Y140000D02*
D03*
X52500D02*
D03*
X62500Y130000D02*
D03*
X52500D02*
D03*
X62500Y120000D02*
D03*
Y110000D02*
D03*
X52500D02*
D03*
X62500Y100000D02*
D03*
X52500D02*
D03*
X62500Y90000D02*
D03*
X52500D02*
D03*
X62500Y80000D02*
D03*
X52500D02*
D03*
X62500Y70000D02*
D03*
X52500D02*
D03*
X62500Y60000D02*
D03*
Y50000D02*
D03*
X52500D02*
D03*
X62500Y40000D02*
D03*
X52500D02*
D03*
X62500Y30000D02*
D03*
X52500D02*
D03*
X292500Y210000D02*
D03*
X302500Y200000D02*
D03*
X292500D02*
D03*
X302500Y190000D02*
D03*
Y180000D02*
D03*
Y170000D02*
D03*
X292500D02*
D03*
X302500Y160000D02*
D03*
X292500D02*
D03*
X302500Y150000D02*
D03*
X292500D02*
D03*
X302500Y140000D02*
D03*
X292500D02*
D03*
X302500Y130000D02*
D03*
X292500D02*
D03*
X302500Y110000D02*
D03*
Y100000D02*
D03*
X292500D02*
D03*
X302500Y90000D02*
D03*
X292500D02*
D03*
X302500Y80000D02*
D03*
X292500D02*
D03*
X302500Y70000D02*
D03*
X292500D02*
D03*
X302500Y60000D02*
D03*
X292500D02*
D03*
X302500Y50000D02*
D03*
X292500D02*
D03*
X302500Y40000D02*
D03*
X292500D02*
D03*
X302500Y30000D02*
D03*
X292500D02*
D03*
Y20000D02*
D03*
X302500D02*
D03*
X52500D02*
D03*
X62500D02*
D03*
D36*
X90400Y230800D02*
D03*
X110400Y243300D02*
D03*
Y218300D02*
D03*
D37*
X80400Y131000D02*
D03*
D38*
X62500Y210000D02*
D03*
X302500D02*
D03*
D39*
X20000Y251900D02*
D03*
X335000D02*
D03*
Y20000D02*
D03*
X20000D02*
D03*
D40*
X271800Y257700D02*
D03*
X211100Y137162D02*
D03*
X223587D02*
D03*
X169400D02*
D03*
X174000D02*
D03*
X226874Y134996D02*
D03*
X194900Y194838D02*
D03*
Y241730D02*
D03*
Y131138D02*
D03*
X271700Y131900D02*
D03*
Y116000D02*
D03*
Y147400D02*
D03*
Y100500D02*
D03*
Y163100D02*
D03*
X194900Y115676D02*
D03*
X271700Y84800D02*
D03*
Y178700D02*
D03*
X277000Y195600D02*
D03*
X194900Y100400D02*
D03*
X271700Y69000D02*
D03*
X194900Y146907D02*
D03*
Y163000D02*
D03*
X271700Y53200D02*
D03*
X194900Y84600D02*
D03*
X271700Y210300D02*
D03*
Y37500D02*
D03*
X194900Y67876D02*
D03*
X271700Y225700D02*
D03*
Y22200D02*
D03*
X194900Y178700D02*
D03*
X271700Y241400D02*
D03*
X290347Y225700D02*
D03*
X194900Y22100D02*
D03*
X194906Y206558D02*
D03*
X194900Y225054D02*
D03*
X196000Y55038D02*
D03*
X195800Y35300D02*
D03*
X313100Y250900D02*
D03*
X194900Y257100D02*
D03*
X286400Y184500D02*
D03*
X269800Y185000D02*
D03*
X216200Y200649D02*
D03*
X194596Y202633D02*
D03*
X221300Y200649D02*
D03*
X168600Y200600D02*
D03*
X218841Y121400D02*
D03*
X156700Y31300D02*
D03*
X283400Y203200D02*
D03*
X229000Y159300D02*
D03*
X286300Y9600D02*
D03*
X164300Y12900D02*
D03*
X68800Y6299D02*
D03*
X283000Y6300D02*
D03*
X151300Y10000D02*
D03*
X74100Y125400D02*
D03*
X68800Y115000D02*
D03*
X69700Y140100D02*
D03*
Y150200D02*
D03*
Y159900D02*
D03*
X150500Y140600D02*
D03*
X147100Y149800D02*
D03*
X153500Y159800D02*
D03*
X164000Y38100D02*
D03*
X167400Y41800D02*
D03*
X164000Y76800D02*
D03*
Y118600D02*
D03*
X160300Y249900D02*
D03*
X159900Y213700D02*
D03*
X157000Y229900D02*
D03*
X156800Y204600D02*
D03*
X160100Y169400D02*
D03*
X156500Y192300D02*
D03*
X159800Y90900D02*
D03*
X160000Y133500D02*
D03*
X160500Y57900D02*
D03*
X156700Y148700D02*
D03*
Y112500D02*
D03*
X156900Y72800D02*
D03*
X283100Y41200D02*
D03*
X259500D02*
D03*
X283100Y79700D02*
D03*
X259300D02*
D03*
X283000Y119000D02*
D03*
X259300Y119193D02*
D03*
X283200Y157900D02*
D03*
X259100Y157700D02*
D03*
X269000Y199300D02*
D03*
X259600Y235100D02*
D03*
X283400Y235600D02*
D03*
X220700Y261500D02*
D03*
X216700Y264401D02*
D03*
X169200Y26000D02*
D03*
X221200Y28788D02*
D03*
X167176Y46624D02*
D03*
X227503Y40749D02*
D03*
X221500Y39700D02*
D03*
X226400Y31700D02*
D03*
X232400Y40900D02*
D03*
X221995Y52833D02*
D03*
X227152Y57141D02*
D03*
X193800Y47700D02*
D03*
X170000Y75700D02*
D03*
X218600Y73600D02*
D03*
X210500Y87946D02*
D03*
X166900Y82300D02*
D03*
X168600Y94100D02*
D03*
X221700Y93700D02*
D03*
X225200Y96600D02*
D03*
X228676Y93376D02*
D03*
X168800Y99900D02*
D03*
X212600Y105800D02*
D03*
X166800Y104100D02*
D03*
X169000Y108800D02*
D03*
X221300Y109300D02*
D03*
X170600Y121700D02*
D03*
X195100Y125500D02*
D03*
X223600Y121400D02*
D03*
X170300Y150800D02*
D03*
X216000Y153738D02*
D03*
X221500Y153300D02*
D03*
X168800Y156400D02*
D03*
X226600Y150800D02*
D03*
X218800Y156600D02*
D03*
X194800D02*
D03*
X194900Y173809D02*
D03*
X212200Y166100D02*
D03*
X168000Y165700D02*
D03*
X218000Y172400D02*
D03*
X169200Y172900D02*
D03*
X223700Y175400D02*
D03*
X227493Y174346D02*
D03*
X212800Y182700D02*
D03*
X167100Y182200D02*
D03*
X194100Y216462D02*
D03*
X209500Y212362D02*
D03*
X170200Y185900D02*
D03*
X223339Y187177D02*
D03*
X166800Y188800D02*
D03*
X218800Y189200D02*
D03*
X225992Y215412D02*
D03*
X226400Y191000D02*
D03*
X163700Y197700D02*
D03*
X169800Y210700D02*
D03*
X166600Y207400D02*
D03*
X163800Y159700D02*
D03*
X164000Y238200D02*
D03*
X214100Y213647D02*
D03*
X222048Y211148D02*
D03*
X216300Y236005D02*
D03*
X195000Y235676D02*
D03*
X169233Y233246D02*
D03*
X168000Y226100D02*
D03*
X223400Y229200D02*
D03*
X221843Y234900D02*
D03*
X226400Y231800D02*
D03*
X170000Y245100D02*
D03*
X211900D02*
D03*
X165200Y264401D02*
D03*
X170800Y261800D02*
D03*
X197700Y250838D02*
D03*
X223600Y252400D02*
D03*
X226932Y250302D02*
D03*
X226400Y72600D02*
D03*
Y112500D02*
D03*
X42100Y12900D02*
D03*
X229000Y237800D02*
D03*
X287000Y219400D02*
D03*
X48300Y217900D02*
D03*
X45400Y253800D02*
D03*
X41900Y258500D02*
D03*
X231600Y253753D02*
D03*
X229100Y198400D02*
D03*
X228900Y120500D02*
D03*
X229000Y76500D02*
D03*
M02*
