M48
;Layer_Color=9474304
;FILE_FORMAT=2:5
INCH,LZ
;TYPE=PLATED
T01F00S00C0.01575
T02F00S00C0.04331
T03F00S00C0.11800
T04F00S00C0.13780
%
T01
X00421Y00129
X00688Y0006299
X01513Y001
X01643Y00129
X01692Y0026
X0164Y00381
X01674Y00418
X0167176Y0046624
X01605Y00579
X01567Y00313
X01958Y00353
X01949Y00221
X01938Y00477
X0196Y0055038
X01949Y0067876
X0221995Y0052833
X0227152Y0057141
X0227503Y0040749
X02324Y00409
X02215Y00397
X02212Y0028788
X02264Y00317
X02595Y00412
X02717Y00375
X02831Y00412
X02717Y00532
Y0069
Y00222
X02863Y00096
X0283Y00063
X02831Y00797
X02717Y00848
Y01005
Y0116
X0283Y0119
X02593Y0119193
X02717Y01319
Y01474
Y01631
Y01787
X02698Y0185
X0269Y01993
X0277Y01956
X02834Y02032
X02717Y02103
Y02257
X0290347
X0287Y02194
X02864Y01845
X02832Y01579
X02591Y01577
X0229Y01593
X02266Y01508
X02215Y01533
X02188Y01566
X0218Y01724
X02237Y01754
X0227493Y0174346
X0223339Y0187177
X02188Y01892
X02264Y0191
X02291Y01984
X02213Y0200649
X0222048Y0211148
X0225992Y0215412
X0223587Y0137162
X0226874Y0134996
X02289Y01205
X02236Y01214
X0218841
X02213Y01093
X02264Y01125
X02252Y00966
X02217Y00937
X0228676Y0093376
X0229Y00765
X02264Y00726
X02186Y00736
X02593Y00797
X02105Y0087946
X01949Y00846
Y01004
Y0115676
X01951Y01255
X01949Y0131138
Y0146907
X01948Y01566
X01949Y0163
Y0173809
Y01787
Y0194838
X0194596Y0202633
X0194906Y0206558
X01941Y0216462
X01949Y0225054
X02095Y0212362
X02141Y0213647
X02162Y0200649
X02128Y01827
X02122Y01661
X0216Y0153738
X02111Y0137162
X02126Y01058
X0169Y01088
X01668Y01041
X01688Y00999
X01686Y00941
X01598Y00909
X01669Y00823
X0164Y00768
X017Y00757
X01569Y00728
X01567Y01125
X0164Y01186
X01706Y01217
X01694Y0137162
X0174
X01703Y01508
X01688Y01564
X01638Y01597
X0168Y01657
X01692Y01729
X01671Y01822
X01702Y01859
X01668Y01888
X01637Y01977
X01686Y02006
X01666Y02074
X01698Y02107
X01599Y02137
X01568Y02046
X01565Y01923
X01601Y01694
X01535Y01598
X01567Y01487
X01471Y01498
X01505Y01406
X016Y01335
X00741Y01254
X00688Y0115
X00697Y01401
Y01502
Y01599
X0168Y02261
X00483Y02179
X00454Y02538
X00419Y02585
X01603Y02499
X017Y02451
X0169233Y0233246
X0164Y02382
X0157Y02299
X01652Y0264401
X01708Y02618
X01949Y02571
X01977Y0250838
X01949Y024173
X0195Y0235676
X02163Y0236005
X02119Y02451
X02167Y0264401
X02207Y02615
X02236Y02524
X0226932Y0250302
X02316Y0253753
X0229Y02378
X02264Y02318
X02234Y02292
X0221843Y02349
X02596Y02351
X02717Y02414
X02718Y02577
X02834Y02356
X03131Y02509
T02
X00525Y002
Y003
Y004
Y005
Y006
Y007
X00625
Y006
Y005
Y004
Y003
Y002
X00804Y0021
Y0031
Y0041
Y0051
Y0061
Y0071
X01404Y0071
Y0061
Y0051
Y0041
Y0031
Y0021
X02925Y002
Y003
Y004
Y005
Y006
Y007
X03025
Y006
Y005
Y004
Y003
Y002
Y008
Y009
Y01
Y011
X02925
Y012
X03025
Y013
Y014
Y015
Y016
Y017
Y018
X02925
Y019
Y02
Y021
X03025
Y02
Y019
X02925Y017
Y016
Y015
Y014
Y013
Y01
Y009
Y008
X01404Y0081
Y0091
Y0101
Y0111
Y0121
Y0131
X00804Y0131
Y0121
Y0111
Y0101
Y0091
Y0081
X00625Y008
Y009
Y01
Y011
Y012
Y013
Y014
Y015
Y016
Y017
Y018
Y019
Y02
Y021
X00525
Y02
Y019
Y018
Y017
Y016
Y015
Y014
Y013
Y012
Y011
Y01
Y009
Y008
T03
X01104Y02183
Y02433
X00904Y02308
T04
X002Y002
X0335
X002Y02519
X0335
M30
